<svg xmlns="http://www.w3.org/2000/svg" width="512" height="512" viewBox="0 0 512 512" role="img" aria-label="bridge icon">
  <title>bridge</title>
  <rect width="512" height="512" fill="none"/>
  <path d="M 79.96 287.65 L 79.96 305.45 L 80.62 306.11 L 159.08 306.11 L 160.40 307.43 L 160.40 347.65 L 161.71 348.97 L 166.33 348.31 L 178.20 348.97 L 179.52 348.31 L 179.52 307.43 L 180.84 306.11 L 331.16 306.11 L 332.48 307.43 L 332.48 348.31 L 333.80 348.97 L 350.29 348.97 L 350.95 348.31 L 350.95 307.43 L 352.26 306.11 L 431.38 306.11 L 431.38 287.65 L 430.73 286.99 L 80.62 286.99 Z M 79.96 248.75 L 79.96 265.89 L 80.62 266.55 L 430.73 266.55 L 431.38 265.89 L 431.38 248.09 L 430.07 247.43 L 406.33 247.43 L 405.67 248.09 L 401.05 247.43 L 389.85 247.43 L 389.19 248.09 L 385.89 247.43 L 354.90 247.43 L 354.24 248.09 L 352.26 247.43 L 348.97 248.09 L 331.16 248.09 L 330.51 247.43 L 316.66 247.43 L 316.00 248.09 L 314.02 247.43 L 288.31 247.43 L 287.65 248.09 L 280.40 247.43 L 211.82 247.43 L 211.16 248.09 L 209.19 247.43 L 186.77 247.43 L 186.11 248.09 L 181.49 247.43 L 180.84 248.09 L 81.27 247.43 Z" fill="#222232" fill-rule="evenodd"/>
  <path d="M 80.62 163.03 L 80.62 180.18 L 81.93 180.84 L 82.59 180.18 L 95.78 180.18 L 101.05 181.49 L 105.67 181.49 L 114.24 184.13 L 130.07 192.04 L 143.25 203.25 L 152.48 215.12 L 157.76 225.67 L 161.71 238.86 L 162.37 247.43 L 180.84 247.43 L 180.18 245.45 L 184.13 230.95 L 188.09 222.37 L 196.66 209.19 L 208.53 197.32 L 219.08 190.07 L 230.29 184.79 L 238.86 182.15 L 250.73 180.18 L 262.59 180.18 L 267.21 181.49 L 272.48 181.49 L 286.33 186.11 L 298.20 192.70 L 303.47 196.66 L 314.68 207.87 L 320.62 216.44 L 326.55 228.31 L 329.19 238.20 L 330.51 240.18 L 331.16 247.43 L 348.97 247.43 L 350.95 234.24 L 357.54 218.42 L 366.77 205.23 L 374.68 197.32 L 387.21 188.75 L 401.71 182.81 L 415.56 180.18 L 430.73 180.18 L 430.73 163.03 L 430.07 162.37 L 414.24 162.37 L 409.63 163.69 L 405.01 163.69 L 393.14 166.99 L 378.64 173.58 L 360.18 187.43 L 350.29 198.64 L 343.69 208.53 L 341.05 215.12 L 339.08 215.78 L 335.12 207.87 L 323.91 192.70 L 312.04 181.49 L 300.18 173.58 L 290.95 168.97 L 273.14 163.69 L 261.93 162.37 L 244.13 163.03 L 225.67 167.65 L 205.23 178.20 L 196.66 184.79 L 184.13 197.32 L 178.86 204.57 L 173.58 214.46 L 171.60 215.78 L 166.33 205.89 L 157.76 194.02 L 147.87 184.13 L 135.34 174.90 L 120.18 167.65 L 106.33 163.69 L 101.71 163.69 L 97.10 162.37 L 81.93 162.37 Z" fill="#e30613" fill-rule="evenodd"/>
</svg>
