<svg xmlns="http://www.w3.org/2000/svg" width="512" height="512" viewBox="0 0 512 512" role="img" aria-label="construction2 icon">
  <title>construction2</title>
  <rect width="512" height="512" fill="none"/>
  <path d="M 320.77 324.97 L 316.56 328.34 L 316.56 353.57 L 314.88 355.25 L 291.33 355.25 L 287.96 357.78 L 287.12 361.98 L 290.49 366.19 L 297.21 366.19 L 298.06 367.03 L 298.90 366.19 L 314.88 366.19 L 316.56 367.87 L 316.56 393.10 L 319.08 395.63 L 322.45 396.47 L 324.97 395.63 L 327.50 393.10 L 327.50 367.87 L 328.34 367.03 L 335.91 367.03 L 336.75 366.19 L 353.57 366.19 L 356.93 362.82 L 356.93 358.62 L 353.57 355.25 L 329.18 355.25 L 327.50 353.57 L 327.50 329.18 L 324.97 325.81 Z M 347.68 81.89 L 343.48 81.05 L 338.43 83.57 L 326.65 86.93 L 314.88 91.98 L 305.63 94.50 L 303.10 96.19 L 293.85 98.71 L 291.33 100.39 L 272.82 106.28 L 261.05 111.33 L 251.79 113.85 L 242.54 118.06 L 224.04 123.94 L 221.51 125.63 L 208.06 129.83 L 205.53 131.51 L 196.28 134.04 L 187.03 138.24 L 177.78 140.77 L 168.52 144.97 L 159.27 147.50 L 145.81 153.38 L 144.97 155.07 L 144.97 416.65 L 143.29 418.34 L 118.90 418.34 L 115.53 420.86 L 115.53 423.38 L 114.69 424.22 L 116.37 428.43 L 119.74 430.11 L 392.26 430.11 L 396.47 426.75 L 396.47 420.86 L 393.10 418.34 L 221.51 418.34 L 220.67 417.50 L 220.67 178.62 L 224.88 176.09 L 245.07 169.36 L 251.79 166.00 L 256.00 165.16 L 269.46 159.27 L 276.19 157.59 L 282.92 154.22 L 293.85 150.86 L 304.79 145.81 L 315.72 142.45 L 316.56 143.29 L 316.56 201.33 L 327.50 201.33 L 327.50 138.24 L 330.86 135.72 L 346.00 130.67 L 350.21 127.31 L 350.21 84.41 Z M 208.06 334.22 L 208.90 335.07 L 208.90 417.50 L 208.06 418.34 L 156.75 418.34 L 155.91 417.50 L 155.91 366.19 L 159.27 362.82 L 174.41 354.41 L 182.82 348.52 L 187.03 346.84 L 203.85 335.91 Z M 208.06 262.73 L 208.90 263.57 L 208.90 319.08 L 160.11 349.36 L 156.75 350.21 L 155.91 349.36 L 155.91 293.01 L 189.55 272.82 L 193.76 271.14 L 197.96 267.78 Z M 208.06 183.66 L 208.90 184.50 L 208.90 248.43 L 175.25 268.62 L 171.05 270.30 L 160.95 277.03 L 156.75 278.71 L 155.91 277.87 L 155.91 203.85 L 159.27 201.33 L 163.48 200.49 L 166.00 198.80 L 190.39 190.39 L 201.33 185.35 Z M 339.27 96.19 L 339.27 119.74 L 337.59 121.42 L 324.97 125.63 L 309.83 132.36 L 303.10 134.04 L 296.37 137.40 L 292.17 138.24 L 289.64 139.93 L 285.44 140.77 L 282.92 142.45 L 278.71 143.29 L 261.05 150.86 L 243.38 156.75 L 236.65 160.11 L 229.93 161.79 L 227.40 163.48 L 214.79 167.68 L 208.06 171.05 L 203.85 171.89 L 201.33 173.57 L 197.12 174.41 L 194.60 176.09 L 190.39 176.93 L 183.66 180.30 L 166.00 186.19 L 163.48 187.87 L 158.43 189.55 L 155.91 188.71 L 155.91 161.79 L 156.75 160.95 L 167.68 157.59 L 176.93 153.38 L 186.19 150.86 L 188.71 149.18 L 202.17 144.97 L 204.69 143.29 L 211.42 141.61 L 213.94 139.93 L 220.67 138.24 L 223.20 136.56 L 229.93 134.88 L 232.45 133.20 L 239.18 131.51 L 241.70 129.83 L 248.43 128.15 L 250.95 126.47 L 257.68 124.79 L 260.21 123.10 L 266.93 121.42 L 269.46 119.74 L 287.96 113.85 L 290.49 112.17 L 308.99 106.28 L 311.51 104.60 L 332.54 97.87 L 337.59 95.35 Z" fill="#222232" fill-rule="evenodd"/>
  <path d="M 281.23 202.17 L 277.87 206.37 L 277.87 288.80 L 278.71 290.49 L 282.07 293.01 L 363.66 293.01 L 366.19 291.33 L 367.03 289.64 L 367.03 277.87 L 367.87 277.03 L 367.87 274.50 L 367.03 273.66 L 367.03 205.53 L 366.19 203.85 L 363.66 202.17 L 329.18 202.17 L 328.34 201.33 L 327.50 202.17 L 316.56 202.17 L 315.72 201.33 L 314.88 202.17 Z M 355.25 252.64 L 356.09 253.48 L 356.09 278.71 L 354.41 281.23 L 327.50 281.23 L 326.65 279.55 L 340.95 265.25 Z M 355.25 213.94 L 356.09 214.79 L 356.09 233.29 L 355.25 234.97 L 308.99 281.23 L 290.49 281.23 L 289.64 280.39 L 289.64 275.35 L 351.05 213.94 Z M 331.70 213.94 L 332.54 215.63 L 290.49 257.68 L 289.64 256.84 L 289.64 214.79 L 290.49 213.94 Z" fill="#e30613" fill-rule="evenodd"/>
</svg>
