<svg xmlns="http://www.w3.org/2000/svg" width="512" height="512" viewBox="0 0 512 512" role="img" aria-label="Digital icon">
  <title>Digital</title>
  <rect width="512" height="512" fill="none"/>
  <path d="M 81.36 356.05 L 82.25 356.94 L 81.36 362.30 L 82.25 363.20 L 82.25 376.60 L 84.93 382.85 L 90.29 388.21 L 97.44 390.89 L 413.67 390.89 L 414.56 390.00 L 419.92 389.10 L 422.60 387.32 L 427.96 381.06 L 429.75 375.70 L 429.75 353.37 L 428.85 351.58 L 426.17 349.80 L 419.92 349.80 L 419.03 348.90 L 416.35 349.80 L 343.99 349.80 L 343.10 348.90 L 342.20 349.80 L 340.42 348.90 L 337.74 348.90 L 336.84 349.80 L 310.04 349.80 L 309.15 348.90 L 301.11 348.90 L 300.22 349.80 L 295.75 349.80 L 289.50 357.84 L 226.97 357.84 L 223.39 351.58 L 218.03 348.90 L 203.74 348.90 L 202.85 349.80 L 184.09 349.80 L 183.20 348.90 L 182.30 349.80 L 134.06 349.80 L 133.17 348.90 L 127.81 348.90 L 126.92 349.80 L 97.44 349.80 L 96.55 348.90 L 92.97 348.90 L 92.08 349.80 L 85.83 349.80 L 84.04 350.69 Z M 93.87 363.20 L 94.76 362.30 L 214.46 362.30 L 216.25 364.09 L 217.14 366.77 L 221.61 370.34 L 294.86 370.34 L 298.43 368.56 L 302.90 362.30 L 417.24 362.30 L 418.13 363.20 L 418.13 370.34 L 417.24 371.24 L 417.24 373.92 L 411.88 378.38 L 100.12 378.38 L 97.44 377.49 L 93.87 373.02 Z" fill="#222232" fill-rule="evenodd"/>
  <path d="M 194.81 220.27 L 193.02 221.16 L 191.24 223.84 L 191.24 254.21 L 190.34 255.11 L 159.97 255.11 L 156.40 259.57 L 156.40 263.15 L 159.97 267.61 L 190.34 267.61 L 191.24 268.51 L 191.24 298.88 L 193.92 301.56 L 198.38 302.45 L 202.85 298.88 L 202.85 268.51 L 203.74 267.61 L 233.22 267.61 L 236.79 264.93 L 236.79 257.79 L 233.22 255.11 L 203.74 255.11 L 202.85 254.21 L 202.85 223.84 L 199.28 220.27 Z M 119.77 130.04 L 115.31 138.08 L 115.31 141.66 L 114.41 142.55 L 114.41 333.72 L 117.99 338.18 L 120.67 339.08 L 393.12 339.08 L 397.59 337.29 L 399.37 333.72 L 399.37 141.66 L 396.69 133.62 L 388.66 124.68 L 377.94 120.22 L 135.85 120.22 L 126.92 123.79 Z M 127.81 140.76 L 134.06 134.51 L 139.42 132.72 L 143.89 132.72 L 144.78 133.62 L 148.36 133.62 L 149.25 132.72 L 176.05 132.72 L 176.94 133.62 L 189.45 133.62 L 190.34 132.72 L 205.53 132.72 L 206.42 133.62 L 214.46 133.62 L 215.35 132.72 L 232.33 132.72 L 233.22 133.62 L 237.69 133.62 L 238.58 132.72 L 240.37 133.62 L 271.63 133.62 L 272.53 132.72 L 276.10 132.72 L 276.99 133.62 L 299.33 133.62 L 300.22 132.72 L 323.44 132.72 L 324.34 133.62 L 329.70 133.62 L 330.59 132.72 L 362.75 132.72 L 363.64 133.62 L 377.94 133.62 L 382.40 136.30 L 385.98 140.76 L 386.87 143.44 L 386.87 324.78 L 385.98 325.68 L 127.81 325.68 L 126.92 324.78 L 126.92 143.44 Z" fill="#e30613" fill-rule="evenodd"/>
</svg>
