<svg xmlns="http://www.w3.org/2000/svg" width="512" height="512" viewBox="0 0 512 512" role="img" aria-label="Flooding icon">
  <title>Flooding</title>
  <rect width="512" height="512" fill="none"/>
  <path d="M 80.50 325.75 L 80.50 329.50 L 83.50 334.75 L 88.75 337.00 L 94.00 337.00 L 97.75 338.50 L 112.00 349.00 L 123.25 354.25 L 133.00 356.50 L 146.50 356.50 L 158.50 353.50 L 169.00 348.25 L 180.25 339.25 L 186.25 336.25 L 196.00 334.00 L 205.00 334.75 L 209.50 336.25 L 217.75 340.75 L 228.25 349.00 L 237.25 353.50 L 249.25 356.50 L 262.75 356.50 L 274.75 353.50 L 286.00 347.50 L 298.75 337.75 L 307.00 334.75 L 311.50 334.75 L 312.25 334.00 L 320.50 334.75 L 327.25 337.00 L 332.50 340.00 L 343.75 349.00 L 352.75 353.50 L 364.75 356.50 L 378.25 356.50 L 394.00 352.00 L 415.75 337.75 L 425.50 336.25 L 428.50 334.00 L 430.75 328.75 L 430.00 323.50 L 427.75 320.50 L 425.50 319.00 L 418.75 318.25 L 406.75 321.25 L 398.50 325.75 L 390.25 332.50 L 382.75 336.25 L 377.50 337.75 L 366.25 337.75 L 361.00 336.25 L 353.50 332.50 L 347.50 327.25 L 334.75 319.75 L 322.00 316.00 L 306.25 316.00 L 295.00 319.00 L 288.25 322.00 L 271.75 334.00 L 261.25 337.75 L 250.75 337.75 L 243.25 335.50 L 236.50 331.75 L 222.25 321.25 L 210.25 316.75 L 206.50 316.75 L 205.75 316.00 L 190.00 316.00 L 181.00 318.25 L 171.25 322.75 L 157.00 333.25 L 151.00 336.25 L 145.00 337.75 L 134.50 337.75 L 127.00 335.50 L 120.25 331.75 L 112.00 325.00 L 103.00 320.50 L 97.75 319.00 L 94.00 319.00 L 93.25 318.25 L 86.50 319.00 L 82.75 321.25 Z M 80.50 272.50 L 81.25 277.75 L 85.00 282.25 L 97.00 284.50 L 112.75 295.75 L 122.50 300.25 L 132.25 302.50 L 148.00 302.50 L 159.25 299.50 L 169.00 294.25 L 181.75 284.50 L 192.25 280.75 L 203.50 280.75 L 211.00 283.00 L 229.00 295.75 L 238.75 300.25 L 247.75 302.50 L 264.25 302.50 L 273.25 300.25 L 283.75 295.00 L 296.50 285.25 L 307.75 280.75 L 319.00 280.75 L 325.00 282.25 L 333.25 286.75 L 342.25 294.25 L 352.75 299.50 L 359.50 301.75 L 379.75 302.50 L 391.00 299.50 L 398.50 295.75 L 406.75 290.50 L 409.75 287.50 L 416.50 283.75 L 426.25 282.25 L 429.25 279.25 L 430.75 275.50 L 430.00 270.25 L 426.25 265.75 L 416.50 265.00 L 406.00 268.00 L 401.50 270.25 L 385.75 281.50 L 379.00 283.75 L 369.25 284.50 L 358.00 281.50 L 352.75 278.50 L 341.50 269.50 L 332.50 265.00 L 321.25 262.00 L 306.25 262.00 L 297.25 264.25 L 286.00 269.50 L 272.50 280.00 L 265.75 283.00 L 258.25 284.50 L 253.00 284.50 L 244.00 282.25 L 235.00 277.00 L 223.00 268.00 L 214.75 264.25 L 205.75 262.00 L 190.75 262.00 L 179.50 265.00 L 170.50 269.50 L 157.75 279.25 L 151.75 282.25 L 142.00 284.50 L 137.50 284.50 L 127.75 282.25 L 123.25 280.00 L 107.50 268.75 L 94.75 265.00 L 87.25 265.00 L 84.25 266.50 L 82.00 268.75 Z M 80.50 165.25 L 81.25 171.25 L 83.50 174.25 L 86.50 175.75 L 94.00 176.50 L 97.75 178.00 L 112.00 188.50 L 123.25 193.75 L 133.00 196.00 L 146.50 196.00 L 158.50 193.00 L 169.00 187.75 L 180.25 178.75 L 187.75 175.00 L 194.50 173.50 L 205.75 174.25 L 211.75 176.50 L 228.25 188.50 L 237.25 193.00 L 250.00 196.00 L 262.00 196.00 L 276.25 192.25 L 286.75 186.25 L 297.25 178.00 L 301.75 175.75 L 310.00 173.50 L 317.50 173.50 L 325.75 175.75 L 332.50 179.50 L 341.50 187.00 L 355.00 193.75 L 364.75 196.00 L 378.25 196.00 L 388.00 193.75 L 395.50 190.75 L 403.00 186.25 L 411.25 179.50 L 418.00 176.50 L 422.50 176.50 L 427.75 174.25 L 430.75 169.00 L 430.00 163.00 L 427.00 159.25 L 423.25 157.75 L 416.50 157.75 L 404.50 161.50 L 390.25 172.00 L 382.75 175.75 L 376.75 177.25 L 366.25 177.25 L 355.75 173.50 L 345.25 165.25 L 335.50 159.25 L 319.00 154.75 L 309.25 154.75 L 295.75 157.75 L 286.75 162.25 L 271.75 173.50 L 260.50 177.25 L 251.50 177.25 L 243.25 175.00 L 236.50 171.25 L 223.75 161.50 L 217.75 158.50 L 203.50 154.75 L 193.00 154.75 L 180.25 157.75 L 169.75 163.00 L 158.50 172.00 L 151.00 175.75 L 145.00 177.25 L 134.50 177.25 L 128.50 175.75 L 120.25 171.25 L 109.75 163.00 L 101.50 159.25 L 94.75 157.75 L 88.00 157.75 L 84.25 159.25 Z" fill="#222232" fill-rule="evenodd"/>
  <path d="M 80.50 219.25 L 80.50 223.00 L 85.00 229.00 L 92.50 229.75 L 97.00 231.25 L 109.00 239.50 L 119.50 244.75 L 134.50 248.50 L 145.75 248.50 L 156.25 246.25 L 166.75 241.75 L 180.25 232.00 L 184.75 229.75 L 193.00 227.50 L 202.75 227.50 L 211.00 229.75 L 215.50 232.00 L 226.75 240.25 L 237.25 245.50 L 250.75 248.50 L 262.00 248.50 L 276.25 244.75 L 285.25 240.25 L 295.00 232.75 L 301.00 229.75 L 309.25 227.50 L 318.25 227.50 L 328.75 230.50 L 342.25 240.25 L 358.00 247.00 L 366.25 247.75 L 367.00 248.50 L 377.50 248.50 L 392.50 244.75 L 401.50 240.25 L 412.75 232.00 L 419.50 229.75 L 426.25 229.00 L 430.00 225.25 L 430.75 223.00 L 430.00 217.00 L 424.75 212.50 L 415.00 212.50 L 402.25 217.00 L 391.00 225.25 L 383.50 229.00 L 376.75 230.50 L 367.00 230.50 L 360.25 229.00 L 352.75 225.25 L 347.50 220.75 L 336.25 214.00 L 319.75 209.50 L 307.75 209.50 L 293.50 213.25 L 284.50 217.75 L 274.75 225.25 L 268.75 228.25 L 260.50 230.50 L 251.50 230.50 L 242.50 228.25 L 235.75 224.50 L 226.00 217.00 L 218.50 213.25 L 204.25 209.50 L 191.50 209.50 L 179.50 212.50 L 167.50 218.50 L 157.75 226.00 L 153.25 228.25 L 145.00 230.50 L 134.50 230.50 L 126.25 228.25 L 121.75 226.00 L 112.00 218.50 L 104.50 214.75 L 97.00 212.50 L 86.50 212.50 L 81.25 217.00 Z" fill="#e30613" fill-rule="evenodd"/>
</svg>
