<svg xmlns="http://www.w3.org/2000/svg" width="512" height="512" viewBox="0 0 512 512" role="img" aria-label="Geotech icon">
  <title>Geotech</title>
  <rect width="512" height="512" fill="none"/>
  <path d="M 82.02 229.62 L 82.94 236.10 L 87.57 239.80 L 177.34 239.80 L 179.19 241.66 L 179.19 372.14 L 184.74 377.70 L 188.44 379.55 L 192.14 383.25 L 199.55 387.88 L 210.65 397.13 L 221.76 404.53 L 229.16 411.01 L 243.97 422.12 L 247.67 423.97 L 254.15 429.52 L 260.63 429.52 L 293.94 403.61 L 301.35 398.98 L 305.05 395.28 L 329.11 377.70 L 334.66 371.22 L 334.66 240.73 L 335.59 239.80 L 423.51 239.80 L 429.06 235.18 L 429.06 228.70 L 428.13 226.85 L 422.58 223.15 L 325.41 223.15 L 319.86 226.85 L 318.93 228.70 L 318.93 363.81 L 300.42 378.62 L 292.09 384.17 L 288.39 387.88 L 283.76 390.65 L 280.06 394.35 L 271.73 399.91 L 268.03 403.61 L 256.93 411.01 L 194.92 363.81 L 194.92 228.70 L 193.99 226.85 L 191.22 224.07 L 188.44 223.15 L 89.42 223.15 L 83.87 225.92 Z" fill="#222232" fill-rule="evenodd"/>
  <path d="M 289.32 291.63 L 283.76 293.48 L 280.99 293.48 L 275.43 296.26 L 275.43 346.23 L 258.78 363.81 L 256.93 363.81 L 240.27 347.16 L 240.27 307.36 L 225.46 311.99 L 225.46 351.78 L 226.39 353.63 L 228.24 354.56 L 256.93 384.17 L 257.85 384.17 L 289.32 352.71 Z M 289.32 229.62 L 286.54 229.62 L 275.43 233.33 L 275.43 274.05 L 271.73 276.82 L 266.18 278.67 L 263.40 278.67 L 243.04 286.08 L 240.27 285.15 L 240.27 245.36 L 237.49 245.36 L 226.39 249.06 L 225.46 249.98 L 225.46 290.70 L 222.68 292.56 L 219.91 292.56 L 207.88 297.18 L 206.03 299.03 L 205.10 301.81 L 205.10 305.51 L 206.03 307.36 L 208.80 310.14 L 211.58 311.06 L 217.13 310.14 L 252.30 298.11 L 255.07 298.11 L 272.66 291.63 L 275.43 291.63 L 290.24 286.08 L 293.02 286.08 L 304.12 282.38 L 307.83 278.67 L 308.75 275.90 L 307.83 271.27 L 305.05 268.49 L 303.20 267.57 L 299.50 267.57 L 292.09 270.34 L 289.32 269.42 Z M 318.01 206.49 L 317.08 204.64 L 313.38 201.86 L 305.97 202.79 L 303.20 204.64 L 300.42 204.64 L 293.94 207.41 L 291.17 207.41 L 290.24 206.49 L 290.24 202.79 L 289.32 201.86 L 289.32 199.08 L 290.24 198.16 L 290.24 167.62 L 286.54 167.62 L 275.43 171.32 L 275.43 212.04 L 273.58 213.89 L 265.25 216.67 L 262.48 216.67 L 251.37 221.30 L 248.60 221.30 L 244.89 223.15 L 241.19 223.15 L 240.27 222.22 L 240.27 183.35 L 237.49 183.35 L 226.39 187.05 L 224.53 188.90 L 225.46 189.83 L 225.46 198.16 L 224.53 199.08 L 224.53 201.86 L 225.46 202.79 L 225.46 227.77 L 221.76 230.55 L 206.95 235.18 L 204.17 237.95 L 203.25 242.58 L 204.17 245.36 L 208.80 249.06 L 213.43 249.06 L 222.68 245.36 L 225.46 245.36 L 231.01 242.58 L 233.79 242.58 L 256.93 234.25 L 259.70 234.25 L 271.73 229.62 L 277.29 228.70 L 285.61 225.00 L 288.39 225.00 L 303.20 219.44 L 305.97 219.44 L 311.53 217.59 L 317.08 213.89 L 318.01 212.04 Z M 198.62 183.35 L 202.32 187.98 L 206.95 188.90 L 268.03 168.54 L 270.81 168.54 L 288.39 162.07 L 291.17 162.07 L 313.38 154.66 L 316.15 152.81 L 318.01 149.11 L 318.01 145.41 L 316.15 141.71 L 313.38 139.86 L 308.75 139.86 L 293.94 145.41 L 291.17 145.41 L 290.24 144.48 L 290.24 81.55 L 225.46 81.55 L 224.53 82.48 L 224.53 166.69 L 221.76 168.54 L 202.32 174.10 L 198.62 178.72 Z M 241.19 96.36 L 273.58 96.36 L 275.43 98.21 L 275.43 150.04 L 273.58 151.89 L 268.03 153.74 L 265.25 153.74 L 243.97 161.14 L 241.19 161.14 L 240.27 160.22 L 240.27 97.29 Z" fill="#e30613" fill-rule="evenodd"/>
</svg>
