<svg xmlns="http://www.w3.org/2000/svg" width="512" height="512" viewBox="0 0 512 512" role="img" aria-label="Materials icon">
  <title>Materials</title>
  <rect width="512" height="512" fill="none"/>
  <path d="M 378.84 358.79 L 374.83 358.79 L 366.81 361.79 L 362.80 365.81 L 359.79 371.82 L 359.79 380.85 L 361.79 385.86 L 366.81 390.87 L 370.82 392.88 L 374.83 392.88 L 375.83 393.88 L 377.84 392.88 L 381.85 392.88 L 385.86 390.87 L 390.87 385.86 L 392.88 380.85 L 392.88 370.82 L 390.87 366.81 L 384.86 360.79 L 382.85 360.79 Z M 368.81 373.83 L 373.83 368.81 L 378.84 368.81 L 380.85 369.82 L 383.86 373.83 L 383.86 378.84 L 381.85 381.85 L 377.84 383.86 L 374.83 383.86 L 368.81 378.84 Z M 309.65 359.79 L 305.64 361.79 L 300.62 367.81 L 299.62 372.82 L 298.62 373.83 L 298.62 379.84 L 301.63 386.86 L 304.64 389.87 L 310.65 392.88 L 320.68 392.88 L 327.70 388.87 L 331.71 382.85 L 331.71 380.85 L 332.71 379.84 L 331.71 369.82 L 328.70 364.80 L 325.69 361.79 L 321.68 359.79 L 318.67 359.79 L 317.67 358.79 Z M 313.66 368.81 L 317.67 368.81 L 319.68 369.82 L 323.69 374.83 L 322.69 379.84 L 317.67 383.86 L 313.66 383.86 L 311.65 382.85 L 307.64 377.84 L 308.65 372.82 Z M 252.49 358.79 L 245.47 361.79 L 240.46 366.81 L 238.45 371.82 L 238.45 381.85 L 240.46 385.86 L 245.47 390.87 L 249.48 392.88 L 259.51 392.88 L 265.53 389.87 L 269.54 385.86 L 271.54 381.85 L 271.54 377.84 L 272.55 376.84 L 271.54 374.83 L 271.54 370.82 L 269.54 366.81 L 264.52 361.79 L 257.50 358.79 Z M 247.48 373.83 L 252.49 368.81 L 257.50 368.81 L 261.52 371.82 L 262.52 373.83 L 262.52 378.84 L 260.51 381.85 L 256.50 383.86 L 253.49 383.86 L 247.48 378.84 Z M 193.33 358.79 L 185.30 361.79 L 180.29 366.81 L 178.28 370.82 L 177.28 378.84 L 178.28 379.84 L 179.29 384.86 L 185.30 390.87 L 189.31 392.88 L 199.34 392.88 L 200.35 391.88 L 202.35 391.88 L 208.37 386.86 L 211.38 379.84 L 211.38 372.82 L 208.37 365.81 L 204.36 361.79 L 200.35 359.79 Z M 192.32 368.81 L 197.34 368.81 L 202.35 374.83 L 201.35 379.84 L 196.33 383.86 L 192.32 383.86 L 190.32 382.85 L 186.31 377.84 L 187.31 372.82 Z M 131.15 358.79 L 124.13 361.79 L 121.13 364.80 L 118.12 369.82 L 117.11 378.84 L 118.12 379.84 L 118.12 382.85 L 121.13 387.87 L 126.14 391.88 L 128.14 391.88 L 129.15 392.88 L 139.18 392.88 L 146.19 388.87 L 148.20 385.86 L 151.21 378.84 L 151.21 373.83 L 148.20 366.81 L 145.19 362.80 L 140.18 359.79 Z M 130.15 369.82 L 132.16 368.81 L 136.17 368.81 L 140.18 371.82 L 142.18 376.84 L 138.17 382.85 L 132.16 383.86 L 127.14 379.84 L 126.14 374.83 Z M 134.16 119.12 L 126.14 127.14 L 120.12 138.17 L 119.12 144.19 L 118.12 145.19 L 118.12 160.23 L 119.12 161.24 L 119.12 164.25 L 120.12 165.25 L 121.13 170.26 L 126.14 178.28 L 134.16 186.31 L 143.19 191.32 L 145.19 191.32 L 147.20 193.33 L 148.20 198.34 L 150.21 201.35 L 154.22 215.39 L 156.22 218.40 L 156.22 220.40 L 157.23 221.40 L 158.23 226.42 L 160.23 229.43 L 160.23 231.43 L 161.24 232.43 L 166.25 248.48 L 163.24 253.49 L 163.24 255.50 L 161.24 259.51 L 161.24 262.52 L 160.23 263.52 L 160.23 275.55 L 161.24 276.56 L 161.24 281.57 L 159.23 284.58 L 159.23 287.59 L 158.23 288.59 L 158.23 290.60 L 157.23 291.60 L 157.23 293.60 L 156.22 294.61 L 145.19 329.70 L 143.19 331.71 L 119.12 331.71 L 118.12 332.71 L 112.10 333.72 L 107.09 336.72 L 105.08 336.72 L 98.06 341.74 L 93.05 346.75 L 93.05 347.75 L 89.04 351.77 L 85.03 359.79 L 85.03 361.79 L 83.02 365.81 L 83.02 368.81 L 82.02 369.82 L 82.02 382.85 L 83.02 383.86 L 83.02 386.86 L 84.02 387.87 L 85.03 392.88 L 93.05 405.92 L 104.08 414.94 L 110.09 417.95 L 112.10 417.95 L 116.11 419.96 L 121.13 419.96 L 122.13 420.96 L 388.87 420.96 L 389.87 419.96 L 394.89 419.96 L 395.89 418.95 L 400.90 417.95 L 409.93 412.94 L 419.96 402.91 L 423.97 396.89 L 424.97 392.88 L 426.97 389.87 L 426.97 387.87 L 427.98 386.86 L 427.98 381.85 L 428.98 380.85 L 427.98 365.81 L 421.96 351.77 L 411.93 340.74 L 401.91 334.72 L 399.90 334.72 L 396.89 332.71 L 393.88 332.71 L 392.88 331.71 L 380.85 331.71 L 379.84 330.71 L 379.84 280.57 L 378.84 279.57 L 378.84 277.56 L 375.83 273.55 L 369.82 270.54 L 342.74 270.54 L 337.73 274.55 L 334.72 280.57 L 334.72 282.57 L 332.71 283.58 L 330.71 281.57 L 329.70 277.56 L 326.70 272.55 L 323.69 270.54 L 296.61 270.54 L 291.60 272.55 L 286.58 279.57 L 286.58 311.65 L 288.59 314.66 L 290.60 314.66 L 291.60 315.67 L 295.61 313.66 L 296.61 311.65 L 296.61 283.58 L 298.62 281.57 L 301.63 281.57 L 302.63 280.57 L 317.67 280.57 L 320.68 282.57 L 324.69 292.60 L 327.70 295.61 L 329.70 295.61 L 330.71 296.61 L 334.72 296.61 L 338.73 294.61 L 341.74 290.60 L 341.74 287.59 L 343.74 283.58 L 345.75 281.57 L 352.77 281.57 L 353.77 280.57 L 365.81 280.57 L 367.81 281.57 L 369.82 284.58 L 369.82 330.71 L 368.81 331.71 L 259.51 331.71 L 257.50 329.70 L 257.50 327.70 L 255.50 324.69 L 249.48 304.64 L 247.48 301.63 L 247.48 299.62 L 240.46 280.57 L 240.46 276.56 L 241.46 275.55 L 241.46 263.52 L 240.46 262.52 L 239.45 255.50 L 234.44 245.47 L 223.41 234.44 L 216.39 231.43 L 213.38 228.42 L 213.38 226.42 L 211.38 223.41 L 208.37 212.38 L 206.36 209.37 L 205.36 204.36 L 203.35 201.35 L 201.35 193.33 L 199.34 190.32 L 197.34 182.30 L 194.33 176.28 L 194.33 173.27 L 195.33 172.27 L 205.36 171.26 L 206.36 170.26 L 211.38 170.26 L 212.38 169.26 L 218.40 169.26 L 219.40 168.26 L 225.42 168.26 L 226.42 167.25 L 231.43 167.25 L 232.43 166.25 L 238.45 166.25 L 239.45 165.25 L 245.47 165.25 L 246.47 164.25 L 251.49 164.25 L 252.49 163.24 L 265.53 162.24 L 266.53 161.24 L 271.54 161.24 L 272.55 160.23 L 278.56 160.23 L 279.57 159.23 L 284.58 159.23 L 285.58 158.23 L 298.62 157.23 L 300.62 156.22 L 300.62 155.22 L 297.62 151.21 L 296.61 147.20 L 288.59 147.20 L 287.59 148.20 L 282.57 148.20 L 281.57 149.20 L 276.56 149.20 L 275.55 150.21 L 269.54 150.21 L 268.53 151.21 L 263.52 151.21 L 262.52 152.21 L 248.48 153.21 L 247.48 154.22 L 242.46 154.22 L 241.46 155.22 L 236.45 155.22 L 235.44 156.22 L 229.43 156.22 L 228.42 157.23 L 222.41 157.23 L 221.40 158.23 L 208.37 159.23 L 207.36 160.23 L 201.35 160.23 L 199.34 161.24 L 198.34 160.23 L 199.34 149.20 L 198.34 148.20 L 198.34 144.19 L 197.34 143.19 L 196.33 137.17 L 199.34 135.16 L 205.36 135.16 L 206.36 134.16 L 211.38 134.16 L 212.38 133.16 L 226.42 132.16 L 227.42 131.15 L 233.44 131.15 L 234.44 130.15 L 240.46 130.15 L 241.46 129.15 L 247.48 129.15 L 248.48 128.14 L 254.50 128.14 L 255.50 127.14 L 261.52 127.14 L 262.52 126.14 L 267.53 126.14 L 268.53 125.14 L 274.55 125.14 L 275.55 124.13 L 280.57 124.13 L 281.57 123.13 L 293.60 122.13 L 294.61 121.13 L 294.61 118.12 L 298.62 111.10 L 278.56 113.10 L 277.56 114.11 L 265.53 115.11 L 264.52 116.11 L 258.51 116.11 L 257.50 117.11 L 251.49 117.11 L 250.48 118.12 L 244.47 118.12 L 243.47 119.12 L 236.45 119.12 L 235.44 120.12 L 223.41 121.13 L 222.41 122.13 L 216.39 122.13 L 215.39 123.13 L 208.37 123.13 L 207.36 124.13 L 195.33 125.14 L 194.33 126.14 L 189.31 126.14 L 179.29 117.11 L 171.26 113.10 L 164.25 112.10 L 163.24 111.10 L 154.22 111.10 L 153.21 112.10 L 149.20 112.10 L 148.20 113.10 L 143.19 114.11 Z M 92.04 371.82 L 93.05 370.82 L 93.05 367.81 L 94.05 366.81 L 95.05 361.79 L 99.06 355.78 L 107.09 347.75 L 115.11 343.74 L 121.13 342.74 L 122.13 341.74 L 388.87 341.74 L 389.87 342.74 L 393.88 342.74 L 400.90 345.75 L 411.93 355.78 L 417.95 367.81 L 418.95 378.84 L 417.95 379.84 L 416.95 387.87 L 410.93 397.89 L 405.92 402.91 L 399.90 406.92 L 391.88 409.93 L 119.12 409.93 L 109.09 405.92 L 99.06 396.89 L 94.05 387.87 L 94.05 385.86 L 92.04 381.85 Z M 155.22 329.70 L 156.22 328.70 L 156.22 326.70 L 160.23 316.67 L 160.23 313.66 L 161.24 312.66 L 162.24 307.64 L 164.25 304.64 L 164.25 301.63 L 167.25 294.61 L 168.26 294.61 L 175.28 301.63 L 182.30 306.64 L 193.33 310.65 L 208.37 310.65 L 209.37 309.65 L 212.38 309.65 L 222.41 304.64 L 232.43 295.61 L 234.44 295.61 L 236.45 298.62 L 238.45 306.64 L 240.46 309.65 L 244.47 322.69 L 247.48 328.70 L 247.48 330.71 L 246.47 331.71 L 156.22 331.71 Z M 197.34 238.45 L 204.36 238.45 L 205.36 239.45 L 211.38 240.46 L 217.39 243.47 L 227.42 254.50 L 229.43 258.51 L 230.43 265.53 L 231.43 266.53 L 230.43 277.56 L 225.42 287.59 L 215.39 296.61 L 204.36 300.62 L 197.34 300.62 L 196.33 299.62 L 193.33 299.62 L 192.32 298.62 L 187.31 297.62 L 180.29 292.60 L 175.28 286.58 L 172.27 280.57 L 171.26 274.55 L 170.26 273.55 L 171.26 261.52 L 175.28 252.49 L 186.31 242.46 Z M 185.30 184.30 L 187.31 186.31 L 189.31 193.33 L 191.32 196.33 L 193.33 204.36 L 195.33 207.36 L 196.33 212.38 L 198.34 215.39 L 198.34 217.39 L 201.35 224.41 L 201.35 227.42 L 200.35 228.42 L 193.33 228.42 L 192.32 229.43 L 186.31 230.43 L 174.27 237.45 L 172.27 235.44 L 170.26 227.42 L 168.26 224.41 L 166.25 216.39 L 164.25 213.38 L 162.24 205.36 L 160.23 202.35 L 159.23 195.33 L 163.24 193.33 L 168.26 193.33 L 171.26 191.32 L 173.27 191.32 Z M 154.22 122.13 L 163.24 122.13 L 164.25 123.13 L 169.26 124.13 L 176.28 128.14 L 183.30 135.16 L 188.31 147.20 L 188.31 158.23 L 187.31 159.23 L 187.31 162.24 L 185.30 167.25 L 175.28 178.28 L 170.26 181.29 L 168.26 181.29 L 164.25 183.30 L 152.21 183.30 L 151.21 182.30 L 146.19 181.29 L 141.18 178.28 L 132.16 168.26 L 128.14 157.23 L 128.14 148.20 L 129.15 147.20 L 129.15 144.19 L 134.16 134.16 L 143.19 126.14 Z" fill="#222232" fill-rule="evenodd"/>
  <path d="M 330.71 90.04 L 329.70 91.04 L 319.68 93.05 L 311.65 97.06 L 304.64 103.08 L 299.62 110.09 L 295.61 118.12 L 294.61 127.14 L 293.60 128.14 L 293.60 135.16 L 294.61 136.17 L 295.61 144.19 L 301.63 156.22 L 309.65 164.25 L 309.65 196.33 L 307.64 197.34 L 288.59 216.39 L 287.59 218.40 L 287.59 220.40 L 286.58 221.40 L 286.58 245.47 L 288.59 248.48 L 295.61 254.50 L 297.62 255.50 L 302.63 254.50 L 303.63 252.49 L 303.63 248.48 L 296.61 241.46 L 296.61 223.41 L 298.62 220.40 L 300.62 219.40 L 314.66 205.36 L 321.68 210.37 L 326.70 212.38 L 326.70 222.41 L 328.70 225.42 L 330.71 226.42 L 335.72 226.42 L 337.73 225.42 L 339.73 222.41 L 339.73 213.38 L 349.76 205.36 L 352.77 205.36 L 369.82 223.41 L 369.82 240.46 L 361.79 250.48 L 362.80 253.49 L 366.81 255.50 L 371.82 253.49 L 377.84 247.48 L 379.84 243.47 L 379.84 220.40 L 377.84 216.39 L 357.78 196.33 L 357.78 165.25 L 366.81 156.22 L 372.82 145.19 L 373.83 137.17 L 374.83 136.17 L 373.83 121.13 L 372.82 120.12 L 371.82 115.11 L 365.81 105.08 L 355.78 96.06 L 349.76 93.05 L 343.74 92.04 L 342.74 91.04 Z M 320.68 170.26 L 325.69 171.26 L 326.70 172.27 L 340.74 172.27 L 345.75 170.26 L 347.75 171.26 L 347.75 194.33 L 342.74 199.34 L 334.72 204.36 L 331.71 204.36 L 327.70 202.35 L 319.68 193.33 L 319.68 171.26 Z M 329.70 101.07 L 338.73 101.07 L 349.76 105.08 L 357.78 112.10 L 363.80 124.13 L 363.80 139.18 L 361.79 142.18 L 360.79 146.19 L 352.77 155.22 L 346.75 159.23 L 341.74 161.24 L 327.70 161.24 L 317.67 157.23 L 310.65 150.21 L 304.64 138.17 L 304.64 125.14 L 305.64 124.13 L 305.64 121.13 L 309.65 114.11 L 317.67 106.08 L 325.69 102.07 L 328.70 102.07 Z" fill="#e30613" fill-rule="evenodd"/>
</svg>
