<svg xmlns="http://www.w3.org/2000/svg" width="512" height="512" viewBox="0 0 512 512" role="img" aria-label="Road icon">
  <title>Road</title>
  <rect width="512" height="512" fill="none"/>
  <path d="M 317.48 111.93 L 312.30 115.63 L 310.81 118.59 L 310.81 124.52 L 312.30 126.74 L 313.78 134.15 L 315.26 136.37 L 317.48 145.26 L 318.96 147.48 L 318.96 149.70 L 321.93 156.37 L 323.41 163.04 L 324.89 165.26 L 324.89 167.48 L 326.37 169.70 L 330.81 183.04 L 330.81 185.26 L 332.30 187.48 L 333.78 194.15 L 335.26 196.37 L 335.26 198.59 L 336.74 200.81 L 336.74 203.04 L 338.96 207.48 L 338.96 209.70 L 340.44 211.93 L 340.44 214.15 L 341.93 216.37 L 341.93 218.59 L 343.41 220.81 L 343.41 223.04 L 344.89 225.26 L 344.89 227.48 L 347.85 234.15 L 347.85 236.37 L 349.33 238.59 L 349.33 240.81 L 350.81 243.04 L 352.30 249.70 L 353.78 251.93 L 358.22 265.26 L 358.22 267.48 L 359.70 269.70 L 359.70 271.93 L 361.19 274.15 L 361.19 276.37 L 362.67 278.59 L 362.67 280.81 L 364.15 283.04 L 364.15 285.26 L 365.63 287.48 L 365.63 289.70 L 367.11 291.93 L 368.59 298.59 L 370.07 300.81 L 370.07 303.04 L 371.56 305.26 L 373.04 311.93 L 374.52 314.15 L 376.74 323.04 L 381.19 334.15 L 381.19 336.37 L 387.85 353.41 L 387.85 355.63 L 389.33 357.85 L 389.33 360.07 L 390.81 362.30 L 399.70 391.19 L 404.89 397.11 L 409.33 399.33 L 421.19 399.33 L 423.41 398.59 L 430.07 391.93 L 430.81 389.70 L 430.07 382.30 L 428.59 380.07 L 425.63 368.96 L 417.48 348.22 L 417.48 346.00 L 413.78 337.85 L 410.81 326.74 L 405.63 314.89 L 405.63 312.67 L 397.48 291.19 L 394.52 280.07 L 391.56 274.15 L 387.85 261.56 L 384.15 254.15 L 384.15 251.19 L 378.96 238.59 L 376.00 228.22 L 372.30 220.07 L 362.67 191.19 L 359.70 185.26 L 357.48 176.37 L 356.00 174.89 L 356.00 172.67 L 351.56 162.30 L 351.56 160.07 L 348.59 154.15 L 348.59 151.93 L 343.41 139.33 L 341.93 132.67 L 338.96 126.74 L 338.96 124.52 L 337.48 122.30 L 336.74 118.59 L 333.78 114.15 L 329.33 111.93 Z M 193.78 111.93 L 181.19 111.93 L 178.22 113.41 L 174.52 117.11 L 172.30 122.30 L 168.59 135.63 L 161.93 151.93 L 161.93 154.15 L 160.44 156.37 L 158.96 163.04 L 150.07 186.00 L 150.07 188.22 L 146.37 196.37 L 143.41 207.48 L 140.44 213.41 L 138.22 221.56 L 136.74 223.78 L 136.74 226.00 L 131.56 237.85 L 131.56 240.07 L 127.11 250.44 L 125.63 257.11 L 120.44 268.96 L 116.74 281.56 L 115.26 283.78 L 115.26 286.00 L 110.81 296.37 L 110.81 298.59 L 109.33 300.07 L 107.11 308.96 L 96.74 335.63 L 95.26 342.30 L 93.78 344.52 L 92.30 350.44 L 90.81 352.67 L 90.81 354.89 L 89.33 357.11 L 89.33 359.33 L 87.85 361.56 L 86.37 367.48 L 84.89 369.70 L 84.89 371.93 L 83.41 374.15 L 83.41 376.37 L 80.44 383.04 L 80.44 391.93 L 87.11 398.59 L 89.33 399.33 L 100.44 399.33 L 106.37 396.37 L 110.81 390.44 L 112.30 383.78 L 113.78 382.30 L 113.78 380.07 L 115.26 377.85 L 115.26 375.63 L 116.74 373.41 L 116.74 371.19 L 118.22 368.96 L 121.93 355.63 L 126.37 345.26 L 126.37 343.04 L 127.85 340.81 L 129.33 334.15 L 133.78 323.04 L 133.78 320.81 L 137.48 312.67 L 137.48 310.44 L 141.19 301.56 L 141.19 299.33 L 150.07 272.67 L 151.56 270.44 L 151.56 268.22 L 153.04 266.00 L 153.04 263.78 L 154.52 261.56 L 154.52 259.33 L 157.48 252.67 L 157.48 250.44 L 161.93 239.33 L 161.93 237.11 L 163.41 234.89 L 163.41 232.67 L 164.89 230.44 L 167.85 219.33 L 169.33 217.11 L 169.33 214.89 L 173.04 206.00 L 173.04 203.78 L 174.52 201.56 L 177.48 190.44 L 178.96 188.22 L 178.96 186.00 L 180.44 183.78 L 180.44 181.56 L 188.59 158.59 L 188.59 156.37 L 190.07 154.15 L 190.07 151.93 L 191.56 149.70 L 193.78 140.81 L 199.70 125.26 L 199.70 117.85 Z" fill="#222232" fill-rule="evenodd"/>
  <path d="M 247.85 308.22 L 244.89 310.44 L 243.41 313.41 L 243.41 394.15 L 248.59 399.33 L 261.93 399.33 L 266.37 394.89 L 266.37 312.67 L 262.67 308.22 Z M 248.59 205.26 L 243.41 210.44 L 243.41 270.44 L 247.11 274.89 L 250.07 275.63 L 262.67 274.89 L 266.37 271.19 L 266.37 209.70 L 261.93 205.26 Z M 247.85 111.93 L 244.89 114.15 L 243.41 117.11 L 243.41 168.22 L 247.11 172.67 L 262.67 172.67 L 264.89 171.19 L 266.37 168.22 L 266.37 115.63 L 262.67 111.93 Z" fill="#e30613" fill-rule="evenodd"/>
</svg>
