<svg xmlns="http://www.w3.org/2000/svg" width="512" height="512" viewBox="0 0 512 512" role="img" aria-label="Structures icon">
  <title>Structures</title>
  <rect width="512" height="512" fill="none"/>
  <path d="M 299.45 424.54 L 299.45 426.45 L 301.36 429.32 L 380.62 429.32 L 382.53 427.41 L 382.53 423.59 L 379.66 421.68 L 303.27 421.68 Z M 192.50 159.08 L 191.54 162.90 L 186.77 164.81 L 183.90 167.67 L 181.99 171.49 L 181.99 181.99 L 183.90 185.81 L 188.68 190.59 L 188.68 191.54 L 180.08 200.14 L 180.08 202.05 L 179.13 203.00 L 178.18 212.55 L 179.13 213.51 L 180.08 218.28 L 138.07 261.25 L 138.07 264.12 L 139.98 266.03 L 143.80 266.03 L 181.04 228.79 L 184.86 224.01 L 186.77 224.01 L 188.68 225.92 L 190.59 225.92 L 191.54 226.88 L 200.14 226.88 L 206.82 224.01 L 246.93 265.07 L 251.70 266.03 L 253.61 264.12 L 253.61 260.30 L 211.60 218.28 L 213.51 214.46 L 213.51 203.96 L 207.78 195.36 L 203.00 191.54 L 203.00 190.59 L 207.78 185.81 L 209.69 181.04 L 209.69 173.40 L 208.73 172.45 L 208.73 169.58 L 204.91 164.81 L 201.09 163.85 L 200.14 162.90 L 200.14 160.99 L 197.27 158.12 Z M 195.36 196.32 L 201.09 200.14 L 205.87 205.87 L 205.87 212.55 L 204.91 214.46 L 201.09 218.28 L 199.18 218.28 L 198.23 219.24 L 193.45 219.24 L 191.54 218.28 L 187.72 214.46 L 185.81 210.64 L 186.77 204.91 L 188.68 202.05 Z M 192.50 169.58 L 199.18 169.58 L 202.05 173.40 L 202.05 179.13 L 201.09 181.04 L 197.27 183.90 L 192.50 182.95 L 188.68 178.18 L 189.63 172.45 Z M 102.74 109.42 L 102.74 113.24 L 103.69 115.15 L 123.75 135.20 L 123.75 136.16 L 137.11 149.53 L 139.02 150.48 L 286.08 150.48 L 287.99 149.53 L 288.94 147.62 L 287.03 135.20 L 281.31 118.97 L 281.31 116.11 L 282.26 115.15 L 286.08 115.15 L 288.94 113.24 L 288.94 109.42 L 287.99 107.51 L 105.60 107.51 Z M 275.58 120.88 L 276.53 121.84 L 276.53 124.70 L 277.49 125.66 L 277.49 128.52 L 279.40 133.29 L 280.35 141.89 L 279.40 142.84 L 260.30 142.84 L 259.34 141.89 L 260.30 139.02 L 271.76 123.75 Z M 203.96 140.93 L 216.37 122.79 L 221.15 118.97 L 236.42 135.20 L 241.20 141.89 L 240.24 142.84 L 204.91 142.84 Z M 147.62 139.98 L 155.26 130.43 L 160.03 122.79 L 164.81 118.97 L 181.04 135.20 L 185.81 141.89 L 184.86 142.84 L 148.57 142.84 L 147.62 141.89 Z M 229.74 116.11 L 233.56 114.20 L 265.07 114.20 L 266.98 116.11 L 266.98 118.02 L 254.57 135.20 L 249.79 139.02 L 242.15 131.38 L 242.15 130.43 L 235.47 123.75 Z M 173.40 115.15 L 174.36 114.20 L 210.64 114.20 L 211.60 115.15 L 211.60 117.06 L 198.23 137.11 L 196.32 139.02 L 194.41 139.02 L 175.31 118.97 Z M 117.06 116.11 L 119.93 114.20 L 124.70 114.20 L 125.66 115.15 L 129.47 115.15 L 130.43 114.20 L 147.62 114.20 L 148.57 115.15 L 154.30 115.15 L 155.26 117.06 L 142.84 135.20 L 138.07 139.02 L 118.97 119.93 Z M 304.22 82.68 L 302.31 83.64 L 297.54 89.37 L 297.54 167.67 L 299.45 171.49 L 304.22 174.36 L 313.77 174.36 L 314.73 175.31 L 314.73 411.17 L 316.64 413.08 L 329.05 413.08 L 340.51 402.58 L 342.42 402.58 L 351.97 413.08 L 365.34 413.08 L 367.25 411.17 L 367.25 375.84 L 368.20 374.89 L 368.20 368.20 L 367.25 367.25 L 367.25 353.88 L 368.20 352.92 L 368.20 351.01 L 367.25 350.06 L 367.25 287.99 L 368.20 287.03 L 367.25 285.12 L 367.25 282.26 L 368.20 281.31 L 368.20 276.53 L 367.25 275.58 L 367.25 230.69 L 368.20 229.74 L 368.20 224.01 L 367.25 223.06 L 367.25 220.19 L 368.20 219.24 L 368.20 214.46 L 367.25 213.51 L 367.25 203.96 L 368.20 203.00 L 368.20 198.23 L 367.25 197.27 L 367.25 185.81 L 368.20 184.86 L 368.20 182.95 L 367.25 181.99 L 367.25 176.27 L 369.16 174.36 L 378.71 174.36 L 383.48 170.54 L 385.39 166.72 L 385.39 151.44 L 386.34 150.48 L 403.53 150.48 L 408.31 146.66 L 409.26 144.75 L 409.26 112.29 L 408.31 110.38 L 404.49 107.51 L 393.98 107.51 L 393.03 108.47 L 393.03 113.24 L 393.98 114.20 L 400.67 114.20 L 402.58 116.11 L 402.58 140.93 L 400.67 142.84 L 386.34 142.84 L 385.39 141.89 L 385.39 91.28 L 383.48 86.50 L 380.62 83.64 L 375.84 82.68 L 374.89 81.73 L 370.11 81.73 L 369.16 82.68 L 334.78 82.68 L 333.82 81.73 L 329.05 81.73 L 328.10 82.68 Z M 358.65 383.48 L 360.56 384.44 L 360.56 406.40 L 359.61 407.35 L 356.74 406.40 L 347.19 396.85 L 347.19 394.94 Z M 322.37 382.53 L 323.32 382.53 L 334.78 394.94 L 334.78 396.85 L 323.32 407.35 L 321.41 406.40 L 321.41 388.25 L 322.37 387.30 L 321.41 383.48 Z M 340.51 355.79 L 342.42 355.79 L 356.74 372.02 L 356.74 373.93 L 341.46 390.16 L 339.55 389.21 L 339.55 388.25 L 325.23 372.98 L 329.05 367.25 Z M 358.65 335.73 L 360.56 336.69 L 360.56 362.47 L 359.61 363.43 L 356.74 361.52 L 356.74 360.56 L 347.19 350.06 L 347.19 348.15 Z M 322.37 335.73 L 323.32 335.73 L 335.73 349.10 L 335.73 350.06 L 323.32 363.43 L 321.41 362.47 L 321.41 347.19 L 322.37 346.24 L 322.37 338.60 L 321.41 336.69 Z M 340.51 309.00 L 342.42 309.00 L 356.74 325.23 L 355.79 328.10 L 341.46 343.37 L 337.64 340.51 L 337.64 339.55 L 326.19 327.14 L 327.14 323.32 Z M 358.65 287.99 L 360.56 288.94 L 360.56 315.68 L 359.61 316.64 L 357.70 315.68 L 357.70 314.73 L 347.19 303.27 L 348.15 299.45 Z M 322.37 287.99 L 323.32 287.99 L 335.73 301.36 L 333.82 305.18 L 323.32 316.64 L 321.41 315.68 L 321.41 305.18 L 322.37 304.22 L 321.41 288.94 Z M 340.51 259.34 L 342.42 259.34 L 343.37 260.30 L 343.37 261.25 L 350.06 267.94 L 356.74 276.53 L 355.79 280.35 L 341.46 295.63 L 340.51 295.63 L 334.78 289.90 L 334.78 288.94 L 325.23 278.44 L 326.19 275.58 Z M 324.28 239.29 L 330.01 245.02 L 335.73 252.66 L 324.28 266.98 L 322.37 267.94 L 321.41 266.98 L 321.41 246.93 L 322.37 245.97 L 322.37 240.24 Z M 358.65 237.38 L 360.56 238.33 L 360.56 266.03 L 359.61 266.98 L 356.74 265.07 L 356.74 264.12 L 347.19 253.61 L 347.19 251.70 L 349.10 248.84 L 353.88 244.06 Z M 340.51 208.73 L 341.46 208.73 L 349.10 216.37 L 356.74 225.92 L 356.74 228.79 L 341.46 245.97 L 336.69 242.15 L 336.69 241.20 L 325.23 228.79 L 325.23 225.92 Z M 358.65 187.72 L 360.56 188.68 L 360.56 215.42 L 359.61 216.37 L 356.74 214.46 L 356.74 213.51 L 347.19 203.00 L 347.19 201.09 Z M 322.37 187.72 L 323.32 187.72 L 328.10 192.50 L 335.73 202.05 L 335.73 203.00 L 323.32 217.33 L 321.41 216.37 L 321.41 203.96 L 322.37 203.00 L 321.41 188.68 Z M 324.28 177.22 L 324.28 175.31 L 325.23 174.36 L 357.70 174.36 L 358.65 175.31 L 358.65 176.27 L 342.42 195.36 L 340.51 195.36 Z M 307.09 89.37 L 374.89 89.37 L 377.75 92.23 L 377.75 164.81 L 375.84 166.72 L 371.07 166.72 L 370.11 167.67 L 353.88 167.67 L 352.92 166.72 L 351.01 166.72 L 350.06 167.67 L 308.04 167.67 L 304.22 164.81 L 304.22 93.19 Z" fill="#222232" fill-rule="evenodd"/>
  <path d="M 250.75 303.27 L 247.88 305.18 L 247.88 348.15 L 249.79 350.06 L 252.66 350.06 L 255.52 347.19 L 255.52 306.13 L 254.57 304.22 Z M 213.51 303.27 L 211.60 304.22 L 210.64 306.13 L 210.64 348.15 L 213.51 350.06 L 215.42 350.06 L 218.28 347.19 L 218.28 306.13 L 217.33 304.22 Z M 176.27 303.27 L 173.40 306.13 L 173.40 346.24 L 176.27 350.06 L 179.13 350.06 L 181.04 348.15 L 181.04 305.18 L 179.13 303.27 Z M 139.02 303.27 L 137.11 305.18 L 137.11 348.15 L 139.02 350.06 L 141.89 350.06 L 143.80 348.15 L 143.80 305.18 L 141.89 303.27 Z M 103.69 278.44 L 101.78 283.21 L 101.78 371.07 L 105.60 376.80 L 109.42 378.71 L 283.21 378.71 L 288.94 373.93 L 289.90 372.02 L 289.90 281.31 L 285.12 275.58 L 283.21 274.62 L 108.47 274.62 Z M 109.42 283.21 L 112.29 281.31 L 280.35 281.31 L 283.21 284.17 L 283.21 369.16 L 281.31 371.07 L 111.33 371.07 L 109.42 369.16 Z" fill="#e30613" fill-rule="evenodd"/>
</svg>
