<svg xmlns="http://www.w3.org/2000/svg" width="512" height="512" viewBox="0 0 512 512" role="img" aria-label="Sustainability icon">
  <title>Sustainability</title>
  <rect width="512" height="512" fill="none"/>
  <path d="M 81.58 398.79 L 81.58 402.51 L 85.30 405.30 L 425.77 405.30 L 429.49 402.51 L 429.49 398.79 L 426.70 396.00 L 365.30 396.00 L 364.37 395.07 L 364.37 391.35 L 363.44 390.42 L 363.44 382.98 L 364.37 382.05 L 363.44 381.12 L 364.37 360.65 L 365.30 359.72 L 369.95 359.72 L 381.12 355.07 L 391.35 343.91 L 394.14 336.47 L 394.14 332.74 L 395.07 331.81 L 395.07 319.72 L 393.21 316.00 L 391.35 315.07 L 381.12 316.00 L 368.09 322.51 L 359.72 331.81 L 358.79 335.53 L 356.93 338.33 L 356.93 341.12 L 355.07 343.91 L 348.56 339.26 L 342.98 336.47 L 337.40 335.53 L 336.47 334.60 L 328.09 334.60 L 327.16 333.67 L 324.37 333.67 L 321.58 334.60 L 318.79 338.33 L 318.79 343.91 L 319.72 344.84 L 320.65 352.28 L 326.23 362.51 L 333.67 369.02 L 339.26 371.81 L 342.05 371.81 L 346.70 373.67 L 354.14 373.67 L 355.07 374.60 L 355.07 395.07 L 354.14 396.00 L 156.93 396.00 L 156.00 395.07 L 156.00 374.60 L 156.93 373.67 L 163.44 373.67 L 164.37 372.74 L 170.88 371.81 L 178.33 368.09 L 182.98 364.37 L 186.70 359.72 L 189.49 354.14 L 191.35 348.56 L 191.35 342.05 L 192.28 339.26 L 190.42 335.53 L 186.70 333.67 L 173.67 334.60 L 162.51 339.26 L 156.00 343.91 L 154.14 342.05 L 154.14 339.26 L 150.42 330.88 L 143.91 323.44 L 132.74 316.93 L 126.23 316.00 L 125.30 315.07 L 119.72 315.07 L 117.86 316.00 L 116.00 318.79 L 116.00 333.67 L 116.93 334.60 L 117.86 340.19 L 120.65 345.77 L 123.44 349.49 L 129.95 355.07 L 137.40 358.79 L 145.77 359.72 L 146.70 360.65 L 146.70 377.40 L 147.63 378.33 L 147.63 392.28 L 145.77 396.00 L 84.37 396.00 Z M 328.09 343.91 L 329.02 342.98 L 335.53 342.98 L 343.91 346.70 L 352.28 356.00 L 354.14 360.65 L 354.14 364.37 L 353.21 365.30 L 344.84 364.37 L 338.33 361.58 L 330.88 354.14 L 329.02 350.42 Z M 182.98 343.91 L 180.19 353.21 L 173.67 360.65 L 166.23 364.37 L 162.51 364.37 L 161.58 365.30 L 157.86 365.30 L 156.93 364.37 L 156.93 360.65 L 159.72 354.14 L 168.09 345.77 L 174.60 342.98 L 182.05 342.98 Z M 384.84 324.37 L 385.77 325.30 L 385.77 333.67 L 382.05 342.05 L 376.47 347.63 L 370.88 350.42 L 365.30 351.35 L 364.37 350.42 L 364.37 343.91 L 367.16 336.47 L 373.67 329.02 L 380.19 325.30 Z M 125.30 324.37 L 128.09 324.37 L 135.53 328.09 L 142.98 335.53 L 146.70 344.84 L 146.70 350.42 L 145.77 351.35 L 142.98 351.35 L 137.40 349.49 L 127.16 340.19 L 125.30 335.53 L 125.30 331.81 L 124.37 330.88 L 124.37 325.30 Z" fill="#222232" fill-rule="evenodd"/>
  <path d="M 269.49 105.77 L 260.19 105.77 L 253.67 111.35 L 245.30 138.33 L 243.44 141.12 L 239.72 154.14 L 236.93 159.72 L 236.00 170.88 L 236.93 171.81 L 236.93 175.53 L 238.79 179.26 L 238.79 182.05 L 240.65 185.77 L 240.65 188.56 L 241.58 189.49 L 241.58 192.28 L 243.44 196.00 L 244.37 201.58 L 237.86 207.16 L 235.07 212.74 L 234.14 217.40 L 230.42 220.19 L 228.56 220.19 L 209.95 229.49 L 208.09 229.49 L 200.65 234.14 L 198.79 234.14 L 173.67 247.16 L 171.81 247.16 L 156.93 254.60 L 153.21 258.33 L 151.35 262.05 L 151.35 267.63 L 152.28 270.42 L 156.00 275.07 L 159.72 276.93 L 169.95 276.93 L 170.88 276.00 L 176.47 276.00 L 177.40 275.07 L 182.05 275.07 L 187.63 273.21 L 193.21 273.21 L 194.14 272.28 L 209.95 270.42 L 210.88 269.49 L 216.47 268.56 L 222.98 264.84 L 234.14 253.67 L 240.65 245.30 L 242.51 246.23 L 242.51 275.07 L 241.58 276.00 L 241.58 331.81 L 240.65 332.74 L 240.65 394.14 L 239.72 395.07 L 249.02 395.07 L 250.88 244.37 L 252.74 242.51 L 255.53 242.51 L 256.47 243.44 L 260.19 242.51 L 261.12 243.44 L 261.12 306.70 L 262.05 307.63 L 262.05 365.30 L 262.98 366.23 L 262.98 395.07 L 271.35 395.07 L 269.49 248.09 L 271.35 247.16 L 285.30 259.26 L 333.67 294.60 L 336.47 295.53 L 343.91 294.60 L 349.49 289.95 L 351.35 286.23 L 351.35 280.65 L 349.49 276.00 L 342.98 268.56 L 341.12 264.84 L 337.40 261.12 L 319.72 236.93 L 314.14 232.28 L 306.70 228.56 L 293.67 225.77 L 292.74 224.84 L 289.95 224.84 L 289.02 223.91 L 281.58 222.98 L 278.79 219.26 L 278.79 215.53 L 276.00 209.02 L 270.42 202.51 L 271.35 192.28 L 272.28 191.35 L 272.28 181.12 L 273.21 180.19 L 274.14 156.93 L 275.07 156.00 L 275.07 142.98 L 276.00 142.05 L 276.00 129.02 L 276.93 128.09 L 276.93 113.21 L 276.00 111.35 Z M 276.00 231.35 L 276.93 230.42 L 280.65 230.42 L 289.02 233.21 L 292.74 233.21 L 308.56 238.79 L 315.07 245.30 L 323.44 257.40 L 342.98 282.51 L 341.12 286.23 L 337.40 286.23 L 290.88 251.81 L 274.14 236.93 Z M 237.86 234.14 L 236.00 237.86 L 226.70 249.02 L 218.33 257.40 L 211.81 261.12 L 196.93 262.98 L 196.00 263.91 L 191.35 263.91 L 190.42 264.84 L 185.77 264.84 L 184.84 265.77 L 180.19 265.77 L 179.26 266.70 L 174.60 266.70 L 173.67 267.63 L 169.02 267.63 L 168.09 268.56 L 161.58 268.56 L 159.72 265.77 L 163.44 261.12 L 165.30 261.12 L 196.00 245.30 L 197.86 245.30 L 229.49 229.49 L 234.14 228.56 Z M 254.60 207.16 L 258.33 207.16 L 262.98 209.02 L 269.49 216.47 L 269.49 224.84 L 268.56 226.70 L 262.98 232.28 L 259.26 234.14 L 253.67 234.14 L 249.02 232.28 L 245.30 228.56 L 242.51 221.12 L 245.30 212.74 L 250.88 208.09 L 253.67 208.09 Z M 266.70 114.14 L 268.56 116.00 L 268.56 125.30 L 267.63 126.23 L 267.63 138.33 L 266.70 139.26 L 266.70 150.42 L 265.77 151.35 L 265.77 163.44 L 264.84 164.37 L 264.84 175.53 L 263.91 176.47 L 262.98 193.21 L 261.12 197.86 L 253.67 197.86 L 251.81 195.07 L 249.95 189.49 L 249.95 186.70 L 247.16 180.19 L 244.37 166.23 L 261.12 116.00 L 262.98 114.14 Z" fill="#e30613" fill-rule="evenodd"/>
</svg>
