<svg xmlns="http://www.w3.org/2000/svg" width="512" height="512" viewBox="0 0 512 512" role="img" aria-label="Traffic icon">
  <title>Traffic</title>
  <rect width="512" height="512" fill="none"/>
  <path d="M 283.54 225.02 L 277.64 230.92 L 275.67 234.85 L 275.67 237.80 L 274.69 238.79 L 274.69 241.74 L 272.72 246.66 L 272.72 250.59 L 271.74 251.57 L 271.74 254.52 L 269.77 259.44 L 269.77 263.38 L 268.79 264.36 L 268.79 267.31 L 267.80 268.30 L 266.82 276.16 L 265.84 277.15 L 264.85 282.07 L 260.92 284.03 L 253.05 284.03 L 251.08 285.02 L 250.10 286.98 L 251.08 289.93 L 253.05 291.90 L 256.98 291.90 L 257.97 292.89 L 254.03 298.79 L 251.08 306.66 L 251.08 325.34 L 250.10 326.33 L 250.10 328.30 L 251.08 329.28 L 251.08 332.23 L 250.10 333.21 L 250.10 357.80 L 251.08 358.79 L 251.08 360.75 L 255.02 365.67 L 255.02 390.26 L 256.98 395.18 L 261.90 399.11 L 282.56 399.11 L 284.52 398.13 L 288.46 392.23 L 288.46 368.62 L 289.44 367.64 L 388.79 367.64 L 389.77 368.62 L 389.77 392.23 L 391.74 396.16 L 395.67 399.11 L 416.33 399.11 L 418.30 398.13 L 421.25 395.18 L 423.21 390.26 L 423.21 365.67 L 427.15 361.74 L 427.15 359.77 L 428.13 358.79 L 428.13 309.61 L 427.15 308.62 L 427.15 304.69 L 425.18 301.74 L 425.18 299.77 L 420.26 292.89 L 421.25 291.90 L 427.15 291.90 L 429.11 288.95 L 429.11 286.98 L 426.16 283.05 L 414.36 283.05 L 413.38 282.07 L 411.41 269.28 L 410.43 268.30 L 410.43 265.34 L 409.44 264.36 L 409.44 261.41 L 407.48 256.49 L 407.48 252.56 L 405.51 247.64 L 404.52 238.79 L 401.57 230.92 L 393.70 224.03 L 387.80 223.05 L 386.82 222.07 L 292.39 222.07 L 291.41 223.05 L 288.46 223.05 Z M 398.62 367.64 L 413.38 367.64 L 414.36 368.62 L 414.36 389.28 L 412.39 391.25 L 399.61 391.25 L 397.64 389.28 L 397.64 368.62 Z M 264.85 367.64 L 279.61 367.64 L 280.59 368.62 L 280.59 389.28 L 278.62 391.25 L 265.84 391.25 L 263.87 389.28 L 263.87 368.62 Z M 382.89 328.30 L 384.85 326.33 L 410.43 326.33 L 412.39 328.30 L 412.39 337.15 L 410.43 339.11 L 384.85 339.11 L 382.89 337.15 Z M 266.82 328.30 L 268.79 326.33 L 294.36 326.33 L 296.33 328.30 L 296.33 338.13 L 295.34 339.11 L 268.79 339.11 L 266.82 337.15 Z M 258.95 309.61 L 262.89 300.75 L 267.80 295.84 L 275.67 291.90 L 401.57 291.90 L 402.56 292.89 L 405.51 292.89 L 412.39 296.82 L 417.31 302.72 L 419.28 307.64 L 419.28 320.43 L 417.31 321.41 L 412.39 318.46 L 382.89 318.46 L 381.90 319.44 L 379.93 319.44 L 375.02 325.34 L 375.02 341.08 L 376.00 343.05 L 380.92 346.98 L 412.39 346.98 L 419.28 342.07 L 420.26 343.05 L 420.26 354.85 L 416.33 358.79 L 262.89 358.79 L 260.92 357.80 L 258.95 354.85 L 258.95 344.03 L 259.93 343.05 L 265.84 346.98 L 298.30 346.98 L 300.26 346.00 L 304.20 341.08 L 304.20 338.13 L 305.18 337.15 L 304.20 336.16 L 305.18 328.30 L 304.20 327.31 L 304.20 324.36 L 300.26 319.44 L 298.30 319.44 L 297.31 318.46 L 265.84 318.46 L 259.93 322.39 L 258.95 321.41 Z M 273.70 281.08 L 274.69 280.10 L 274.69 276.16 L 276.66 271.25 L 276.66 267.31 L 278.62 262.39 L 278.62 258.46 L 280.59 253.54 L 280.59 249.61 L 281.57 248.62 L 283.54 237.80 L 287.48 232.89 L 291.41 230.92 L 386.82 230.92 L 387.80 231.90 L 389.77 231.90 L 391.74 232.89 L 395.67 237.80 L 397.64 250.59 L 398.62 251.57 L 398.62 254.52 L 400.59 259.44 L 400.59 263.38 L 402.56 268.30 L 402.56 272.23 L 404.52 277.15 L 404.52 282.07 L 403.54 283.05 L 274.69 283.05 Z" fill="#222232" fill-rule="evenodd"/>
  <path d="M 115.34 113.87 L 107.48 122.72 L 106.49 129.61 L 104.52 134.52 L 104.52 138.46 L 103.54 139.44 L 103.54 142.39 L 101.57 147.31 L 100.59 156.16 L 99.61 157.15 L 99.61 160.10 L 98.62 161.08 L 98.62 164.03 L 97.64 165.02 L 96.66 169.93 L 95.67 170.92 L 85.84 170.92 L 83.87 171.90 L 81.90 174.85 L 82.89 177.80 L 84.85 179.77 L 89.77 179.77 L 90.75 180.75 L 85.84 188.62 L 85.84 190.59 L 84.85 191.57 L 84.85 196.49 L 83.87 197.48 L 83.87 224.03 L 84.85 225.02 L 84.85 232.89 L 83.87 233.87 L 84.85 236.82 L 83.87 237.80 L 83.87 243.70 L 84.85 244.69 L 84.85 246.66 L 88.79 251.57 L 88.79 276.16 L 90.75 281.08 L 96.66 285.02 L 113.38 285.02 L 117.31 283.05 L 120.26 279.11 L 120.26 254.52 L 121.25 253.54 L 215.67 253.54 L 216.66 254.52 L 216.66 278.13 L 217.64 280.10 L 223.54 285.02 L 241.25 285.02 L 245.18 283.05 L 248.13 279.11 L 248.13 251.57 L 253.05 246.66 L 253.05 244.69 L 254.03 243.70 L 254.03 194.52 L 253.05 193.54 L 253.05 190.59 L 248.13 180.75 L 249.11 179.77 L 254.03 179.77 L 256.98 175.84 L 256.00 174.85 L 256.00 172.89 L 254.03 170.92 L 242.23 170.92 L 241.25 169.93 L 240.26 162.07 L 238.30 157.15 L 238.30 153.21 L 236.33 148.30 L 236.33 144.36 L 234.36 139.44 L 234.36 135.51 L 232.39 130.59 L 232.39 126.66 L 229.44 119.77 L 223.54 113.87 L 218.62 111.90 L 120.26 111.90 Z M 225.51 253.54 L 239.28 253.54 L 240.26 254.52 L 240.26 275.18 L 238.30 277.15 L 227.48 277.15 L 224.52 275.18 L 224.52 254.52 Z M 97.64 253.54 L 111.41 253.54 L 112.39 254.52 L 112.39 275.18 L 110.43 277.15 L 98.62 277.15 L 96.66 274.20 L 96.66 254.52 Z M 206.82 217.15 L 210.75 214.20 L 212.72 215.18 L 234.36 214.20 L 237.31 217.15 L 237.31 222.07 L 236.33 223.05 L 236.33 226.00 L 234.36 227.97 L 229.44 227.97 L 228.46 226.98 L 208.79 226.98 L 206.82 224.03 Z M 100.59 218.13 L 101.57 216.16 L 104.52 214.20 L 106.49 215.18 L 121.25 215.18 L 122.23 214.20 L 124.20 214.20 L 125.18 215.18 L 127.15 214.20 L 130.10 217.15 L 130.10 225.02 L 128.13 226.98 L 103.54 226.98 L 101.57 225.02 Z M 92.72 194.52 L 96.66 186.66 L 100.59 182.72 L 106.49 179.77 L 232.39 179.77 L 239.28 183.70 L 245.18 192.56 L 245.18 195.51 L 246.16 196.49 L 246.16 213.21 L 244.20 214.20 L 242.23 210.26 L 237.31 207.31 L 206.82 207.31 L 204.85 208.30 L 199.93 214.20 L 199.93 227.97 L 201.90 231.90 L 206.82 234.85 L 228.46 234.85 L 229.44 233.87 L 236.33 233.87 L 238.30 232.89 L 242.23 228.95 L 243.21 226.00 L 245.18 225.02 L 246.16 226.00 L 246.16 240.75 L 243.21 244.69 L 95.67 244.69 L 92.72 241.74 L 92.72 238.79 L 91.74 237.80 L 91.74 232.89 L 93.70 227.97 L 94.69 227.97 L 95.67 229.93 L 100.59 233.87 L 106.49 233.87 L 107.48 234.85 L 129.11 234.85 L 134.03 232.89 L 136.98 228.95 L 136.98 226.98 L 137.97 226.00 L 137.97 215.18 L 136.98 214.20 L 136.98 212.23 L 131.08 207.31 L 100.59 207.31 L 93.70 211.25 L 92.72 210.26 Z M 105.51 168.95 L 106.49 167.97 L 107.48 159.11 L 108.46 158.13 L 109.44 150.26 L 110.43 149.28 L 110.43 146.33 L 112.39 141.41 L 112.39 137.48 L 114.36 132.56 L 114.36 128.62 L 116.33 124.69 L 121.25 120.75 L 217.64 120.75 L 219.61 121.74 L 223.54 126.66 L 223.54 129.61 L 224.52 130.59 L 224.52 133.54 L 226.49 138.46 L 226.49 142.39 L 227.48 143.38 L 227.48 147.31 L 228.46 148.30 L 228.46 151.25 L 230.43 156.16 L 230.43 160.10 L 232.39 165.02 L 232.39 169.93 L 231.41 170.92 L 106.49 170.92 Z" fill="#e30613" fill-rule="evenodd"/>
</svg>
