<svg xmlns="http://www.w3.org/2000/svg" width="512" height="512" viewBox="0 0 512 512" role="img" aria-label="Water icon">
  <title>Water</title>
  <rect width="512" height="512" fill="none"/>
  <path d="M 249.95 85.08 L 222.72 101.71 L 198.52 119.87 L 190.96 127.43 L 189.45 127.43 L 159.19 157.68 L 159.19 159.19 L 142.55 178.86 L 127.43 204.57 L 127.43 207.60 L 124.40 212.13 L 124.40 215.16 L 121.38 219.70 L 121.38 222.72 L 115.33 237.85 L 113.82 252.97 L 112.30 254.49 L 112.30 268.10 L 110.79 269.61 L 110.79 284.74 L 112.30 286.25 L 112.30 299.87 L 113.82 301.38 L 115.33 314.99 L 116.84 316.50 L 119.87 328.61 L 122.89 333.14 L 122.89 336.17 L 130.45 351.29 L 142.55 369.45 L 156.17 384.57 L 157.68 384.57 L 174.32 399.70 L 201.55 414.82 L 204.57 414.82 L 215.16 419.36 L 225.75 420.87 L 227.26 422.39 L 233.31 422.39 L 234.82 423.90 L 260.54 425.41 L 262.05 423.90 L 275.66 423.90 L 277.18 422.39 L 290.79 420.87 L 292.30 419.36 L 308.94 414.82 L 327.09 405.75 L 340.71 396.67 L 363.39 375.50 L 378.52 354.32 L 392.13 324.07 L 395.16 308.94 L 396.67 307.43 L 396.67 301.38 L 398.18 299.87 L 399.70 268.10 L 398.18 266.59 L 398.18 254.49 L 396.67 252.97 L 396.67 245.41 L 395.16 243.90 L 395.16 237.85 L 392.13 231.80 L 392.13 227.26 L 389.11 222.72 L 389.11 219.70 L 386.08 215.16 L 383.06 204.57 L 380.03 201.55 L 375.50 190.96 L 360.37 168.27 L 342.22 148.61 L 342.22 147.09 L 308.94 116.84 L 272.64 91.13 L 265.08 88.10 L 262.05 85.08 Z M 252.97 104.74 L 260.54 106.25 L 293.82 128.94 L 299.87 134.99 L 308.94 141.04 L 339.19 171.29 L 339.19 172.81 L 349.78 184.91 L 358.86 198.52 L 363.39 209.11 L 366.42 212.13 L 366.42 215.16 L 370.96 222.72 L 370.96 225.75 L 373.98 230.29 L 373.98 233.31 L 377.01 239.36 L 377.01 243.90 L 380.03 251.46 L 380.03 260.54 L 381.55 262.05 L 381.55 290.79 L 380.03 292.30 L 380.03 301.38 L 378.52 302.89 L 377.01 313.48 L 363.39 343.73 L 351.29 360.37 L 331.63 380.03 L 316.50 390.62 L 301.38 398.18 L 298.35 398.18 L 293.82 401.21 L 290.79 401.21 L 284.74 404.24 L 266.59 405.75 L 265.08 407.26 L 246.92 407.26 L 245.41 405.75 L 227.26 404.24 L 225.75 402.72 L 209.11 398.18 L 193.98 390.62 L 180.37 381.55 L 159.19 360.37 L 145.58 340.71 L 134.99 318.02 L 134.99 313.48 L 133.48 311.97 L 133.48 307.43 L 130.45 299.87 L 130.45 292.30 L 128.94 290.79 L 128.94 260.54 L 130.45 259.03 L 130.45 251.46 L 131.97 249.95 L 133.48 239.36 L 134.99 237.85 L 136.50 230.29 L 139.53 225.75 L 139.53 222.72 L 154.66 193.98 L 172.81 169.78 L 198.52 144.07 L 200.03 144.07 L 207.60 136.50 L 209.11 136.50 L 227.26 121.38 Z" fill="#222232" fill-rule="evenodd"/>
  <path d="M 162.22 277.18 L 159.19 281.71 L 159.19 296.84 L 160.71 298.35 L 160.71 302.89 L 162.22 304.40 L 163.73 311.97 L 166.76 316.50 L 166.76 319.53 L 174.32 333.14 L 178.86 339.19 L 200.03 358.86 L 210.62 364.91 L 218.18 364.91 L 221.21 361.88 L 221.21 352.81 L 207.60 345.24 L 200.03 337.68 L 198.52 337.68 L 189.45 327.09 L 180.37 311.97 L 180.37 308.94 L 177.34 304.40 L 175.83 292.30 L 174.32 290.79 L 174.32 281.71 L 172.81 278.69 L 166.76 275.66 L 165.24 277.18 Z" fill="#e30613" fill-rule="evenodd"/>
</svg>
