<svg xmlns="http://www.w3.org/2000/svg" viewBox="0 0 1359 285" role="img" aria-labelledby="title desc">
<title id="title">Perdana Jurutera Perunding</title>
<desc id="desc">Vector traced logo based on supplied reference image.</desc>
<path d="M 144.0 264.5 L 143.0 263.5 L 130.0 263.5 L 129.0 262.5 L 123.0 262.5 L 122.0 261.5 L 118.0 261.5 L 117.0 260.5 L 114.0 260.5 L 110.0 258.5 L 107.0 258.5 L 106.0 257.5 L 104.0 257.5 L 101.0 255.5 L 96.0 254.5 L 82.0 247.5 L 71.0 239.5 L 70.0 239.5 L 67.0 236.5 L 66.0 236.5 L 47.5 218.0 L 47.5 217.0 L 41.5 210.0 L 41.5 209.0 L 37.5 204.0 L 35.5 199.0 L 33.5 197.0 L 30.5 191.0 L 30.5 189.0 L 28.5 186.0 L 28.5 184.0 L 26.5 181.0 L 26.5 179.0 L 25.5 178.0 L 25.5 176.0 L 23.5 172.0 L 23.5 169.0 L 22.5 168.0 L 22.5 164.0 L 21.5 163.0 L 21.5 158.0 L 20.5 157.0 L 20.5 147.0 L 19.5 146.0 L 19.5 138.0 L 20.5 137.0 L 20.5 126.0 L 21.5 125.0 L 21.5 120.0 L 22.5 119.0 L 23.5 112.0 L 25.5 108.0 L 25.5 105.0 L 27.5 102.0 L 28.5 97.0 L 37.5 79.0 L 39.5 77.0 L 39.5 76.0 L 41.5 74.0 L 41.5 73.0 L 43.5 71.0 L 45.5 67.0 L 52.5 60.0 L 52.5 59.0 L 70.0 43.5 L 71.0 43.5 L 79.0 37.5 L 82.0 36.5 L 84.0 34.5 L 92.0 30.5 L 94.0 30.5 L 99.0 27.5 L 101.0 27.5 L 104.0 25.5 L 107.0 25.5 L 111.0 23.5 L 114.0 23.5 L 115.0 22.5 L 119.0 22.5 L 120.0 21.5 L 123.0 21.5 L 124.0 20.5 L 131.0 20.5 L 132.0 19.5 L 156.0 19.5 L 157.0 20.5 L 165.0 20.5 L 166.0 21.5 L 170.0 21.5 L 171.0 22.5 L 175.0 22.5 L 176.0 23.5 L 181.0 24.5 L 182.0 25.5 L 184.0 25.5 L 185.0 26.5 L 190.0 27.5 L 193.0 29.5 L 195.0 29.5 L 203.0 33.5 L 205.0 35.5 L 210.0 37.5 L 215.0 41.5 L 219.0 43.5 L 223.0 47.5 L 224.0 47.5 L 238.5 62.0 L 238.5 63.0 L 242.5 67.0 L 242.5 68.0 L 246.5 72.0 L 249.5 78.0 L 251.5 80.0 L 258.5 94.0 L 258.5 96.0 L 260.5 99.0 L 260.5 101.0 L 263.5 107.0 L 263.5 110.0 L 264.5 111.0 L 264.5 114.0 L 265.5 115.0 L 265.5 119.0 L 266.5 120.0 L 266.5 124.0 L 267.5 125.0 L 267.5 134.0 L 268.5 135.0 L 268.5 149.0 L 267.5 150.0 L 267.5 158.0 L 266.5 159.0 L 266.5 164.0 L 265.5 165.0 L 265.5 169.0 L 264.5 170.0 L 264.5 173.0 L 263.5 174.0 L 263.5 176.0 L 262.5 177.0 L 261.5 182.0 L 256.5 192.0 L 256.5 194.0 L 254.5 198.0 L 252.5 200.0 L 250.5 205.0 L 248.5 207.0 L 248.5 208.0 L 246.5 210.0 L 244.5 214.0 L 241.5 217.0 L 241.5 218.0 L 233.5 226.0 L 233.5 227.0 L 228.0 232.5 L 227.0 232.5 L 222.0 237.5 L 221.0 237.5 L 214.0 243.5 L 211.0 244.5 L 206.0 248.5 L 196.0 253.5 L 194.0 253.5 L 191.0 255.5 L 189.0 255.5 L 183.0 258.5 L 181.0 258.5 L 180.0 259.5 L 177.0 259.5 L 176.0 260.5 L 173.0 260.5 L 172.0 261.5 L 168.0 261.5 L 167.0 262.5 L 161.0 262.5 L 160.0 263.5 L 145.0 263.5 L 144.0 264.5 Z M 155.5 252.0 L 156.0 251.5 L 164.0 251.5 L 165.0 250.5 L 169.0 250.5 L 170.0 249.5 L 173.0 249.5 L 174.0 248.5 L 176.0 248.5 L 177.0 247.5 L 180.0 247.5 L 183.0 245.5 L 188.0 244.5 L 191.0 242.5 L 193.0 242.5 L 195.0 241.5 L 197.0 239.5 L 202.0 237.5 L 204.0 235.5 L 205.0 235.5 L 210.0 231.5 L 211.0 231.5 L 214.0 228.5 L 215.0 228.5 L 231.5 212.0 L 231.5 211.0 L 235.5 207.0 L 235.5 206.0 L 237.5 204.0 L 239.5 200.0 L 241.5 198.0 L 249.5 182.0 L 250.5 177.0 L 251.5 176.0 L 252.5 171.0 L 253.5 170.0 L 253.5 167.0 L 254.5 166.0 L 254.5 163.0 L 255.5 162.0 L 255.5 158.0 L 256.5 157.0 L 256.5 148.0 L 257.5 147.0 L 257.5 137.0 L 256.5 136.0 L 256.5 126.0 L 255.5 125.0 L 255.5 121.0 L 254.5 120.0 L 254.5 117.0 L 253.5 116.0 L 253.5 113.0 L 252.5 112.0 L 252.5 109.0 L 251.5 108.0 L 250.5 103.0 L 248.5 100.0 L 248.5 98.0 L 243.5 88.0 L 241.5 86.0 L 240.5 83.0 L 238.5 81.0 L 236.5 77.0 L 232.5 73.0 L 232.5 72.0 L 216.0 55.5 L 215.0 55.5 L 212.0 52.5 L 211.0 52.5 L 205.0 47.5 L 198.0 44.5 L 196.0 42.5 L 192.0 40.5 L 190.0 40.5 L 187.0 38.5 L 185.0 38.5 L 184.0 37.5 L 179.0 36.5 L 178.0 35.5 L 175.0 35.5 L 174.0 34.5 L 171.0 34.5 L 170.0 33.5 L 166.0 33.5 L 165.0 32.5 L 159.0 32.5 L 158.0 31.5 L 131.0 31.5 L 130.0 32.5 L 124.0 32.5 L 123.0 33.5 L 119.0 33.5 L 118.0 34.5 L 115.0 34.5 L 111.0 36.5 L 108.0 36.5 L 107.0 37.5 L 102.0 38.5 L 84.0 47.5 L 82.0 49.5 L 78.0 51.5 L 75.0 54.5 L 74.0 54.5 L 70.0 58.5 L 69.0 58.5 L 57.5 70.0 L 57.5 71.0 L 53.5 75.0 L 51.5 79.0 L 48.5 82.0 L 47.5 85.0 L 45.5 87.0 L 38.5 101.0 L 38.5 103.0 L 37.5 104.0 L 37.5 106.0 L 36.5 107.0 L 35.5 112.0 L 34.5 113.0 L 34.5 116.0 L 33.5 117.0 L 33.5 121.0 L 32.5 122.0 L 32.5 127.0 L 31.5 128.0 L 31.5 154.0 L 32.5 155.0 L 32.5 161.0 L 33.5 162.0 L 33.5 166.0 L 35.5 170.0 L 35.5 173.0 L 36.5 174.0 L 37.5 179.0 L 40.5 184.0 L 40.5 186.0 L 45.5 196.0 L 47.5 198.0 L 47.5 199.0 L 51.5 204.0 L 51.5 205.0 L 54.5 208.0 L 54.5 209.0 L 58.5 213.0 L 58.5 214.0 L 73.0 227.5 L 74.0 227.5 L 81.0 233.5 L 84.0 234.5 L 86.0 236.5 L 89.0 237.5 L 91.0 239.5 L 93.0 240.5 L 95.0 240.5 L 104.0 245.5 L 106.0 245.5 L 107.0 246.5 L 109.0 246.5 L 113.0 248.5 L 116.0 248.5 L 117.0 249.5 L 121.0 249.5 L 122.0 250.5 L 126.0 250.5 L 127.0 251.5 L 134.0 251.5 L 135.0 252.5 L 155.0 252.5 L 155.5 252.0 Z M 78.0 204.5 L 71.0 204.5 L 69.0 202.5 L 68.0 202.5 L 67.5 201.0 L 65.5 199.0 L 65.5 89.0 L 67.5 85.0 L 71.0 81.5 L 75.0 79.5 L 77.0 79.5 L 78.0 78.5 L 81.0 78.5 L 82.0 77.5 L 101.0 77.5 L 102.0 78.5 L 104.0 78.5 L 110.0 81.5 L 117.5 89.0 L 121.5 97.0 L 121.5 100.0 L 122.5 101.0 L 122.5 122.0 L 121.5 123.0 L 121.5 126.0 L 120.5 127.0 L 120.5 129.0 L 119.5 130.0 L 119.5 132.0 L 117.5 136.0 L 115.5 138.0 L 115.5 139.0 L 106.0 148.5 L 105.0 148.5 L 103.0 150.5 L 97.0 153.5 L 95.0 153.5 L 91.0 155.5 L 88.0 155.5 L 84.5 158.0 L 84.5 197.0 L 83.5 198.0 L 83.5 200.0 L 80.0 203.5 L 78.0 204.5 Z M 141.0 204.5 L 130.0 204.5 L 129.0 203.5 L 127.0 203.5 L 123.0 200.5 L 122.0 200.5 L 117.5 195.0 L 114.5 189.0 L 114.5 187.0 L 112.5 183.0 L 112.5 179.0 L 111.5 178.0 L 111.5 159.0 L 113.5 155.0 L 115.0 154.5 L 117.0 152.5 L 124.0 152.5 L 126.0 153.5 L 128.5 157.0 L 128.5 173.0 L 129.5 174.0 L 129.5 180.0 L 133.0 184.5 L 136.0 184.5 L 138.5 182.0 L 139.5 180.0 L 139.5 175.0 L 140.5 174.0 L 140.5 97.0 L 139.0 95.5 L 138.0 96.5 L 137.0 95.5 L 133.0 95.5 L 131.0 94.5 L 129.5 93.0 L 127.5 89.0 L 127.5 86.0 L 130.5 80.0 L 135.0 77.5 L 164.0 77.5 L 166.0 78.5 L 169.5 82.0 L 170.5 84.0 L 170.5 89.0 L 167.0 93.5 L 165.0 94.5 L 163.0 94.5 L 159.5 97.0 L 159.5 177.0 L 158.5 178.0 L 158.5 182.0 L 157.5 183.0 L 157.5 186.0 L 156.5 187.0 L 156.5 189.0 L 153.5 195.0 L 146.0 202.5 L 144.0 203.5 L 142.0 203.5 L 141.0 204.5 Z M 188.0 204.5 L 182.0 204.5 L 178.0 202.5 L 177.5 201.0 L 175.5 199.0 L 175.5 89.0 L 176.5 88.0 L 176.5 86.0 L 182.0 80.5 L 184.0 79.5 L 186.0 79.5 L 187.0 78.5 L 190.0 78.5 L 191.0 77.5 L 209.0 77.5 L 210.0 78.5 L 212.0 78.5 L 213.0 79.5 L 215.0 79.5 L 217.0 80.5 L 219.0 82.5 L 220.0 82.5 L 226.5 89.0 L 230.5 97.0 L 230.5 99.0 L 231.5 100.0 L 231.5 103.0 L 232.5 104.0 L 232.5 122.0 L 231.5 123.0 L 231.5 126.0 L 230.5 127.0 L 230.5 129.0 L 229.5 130.0 L 229.5 132.0 L 227.5 136.0 L 225.5 138.0 L 225.5 139.0 L 216.0 148.5 L 204.0 154.5 L 202.0 154.5 L 201.0 155.5 L 198.0 155.5 L 194.5 158.0 L 194.5 198.0 L 193.0 200.5 L 190.0 203.5 L 188.0 204.5 Z M 87.5 139.0 L 90.0 138.5 L 92.0 136.5 L 93.0 136.5 L 99.5 129.0 L 101.5 125.0 L 101.5 122.0 L 102.5 121.0 L 102.5 118.0 L 103.5 117.0 L 103.5 104.0 L 102.5 103.0 L 101.5 98.0 L 99.0 95.5 L 97.0 94.5 L 94.0 94.5 L 93.0 93.5 L 91.0 94.5 L 87.0 94.5 L 84.5 97.0 L 84.5 138.0 L 86.0 139.5 L 87.5 139.0 Z M 197.5 139.0 L 201.0 137.5 L 208.5 130.0 L 211.5 124.0 L 211.5 122.0 L 212.5 121.0 L 212.5 116.0 L 213.5 115.0 L 213.5 107.0 L 212.5 106.0 L 212.5 102.0 L 211.5 101.0 L 211.5 99.0 L 208.0 95.5 L 206.0 94.5 L 197.0 94.5 L 194.5 98.0 L 194.5 138.0 L 196.0 139.5 L 197.5 139.0 Z M 1027.0 220.5 L 1018.0 220.5 L 1016.0 219.5 L 1012.5 216.0 L 1011.5 214.0 L 1011.5 211.0 L 1010.5 210.0 L 1010.5 206.0 L 1011.5 205.0 L 1011.5 203.0 L 1012.5 201.0 L 1017.0 196.5 L 1019.0 196.5 L 1020.0 195.5 L 1024.0 195.5 L 1025.0 196.5 L 1027.0 196.5 L 1030.5 200.0 L 1028.0 202.5 L 1025.0 199.5 L 1019.0 199.5 L 1015.5 204.0 L 1015.5 212.0 L 1017.0 214.5 L 1021.0 217.5 L 1024.0 217.5 L 1026.5 215.0 L 1026.5 212.0 L 1025.0 210.5 L 1021.5 210.0 L 1022.0 207.5 L 1030.0 207.5 L 1030.5 208.0 L 1030.5 218.0 L 1027.0 220.5 Z M 1085.0 220.5 L 1082.5 220.0 L 1082.5 201.0 L 1081.0 199.5 L 1076.0 199.5 L 1075.5 199.0 L 1076.0 196.5 L 1079.0 196.5 L 1080.0 195.5 L 1088.0 195.5 L 1089.0 196.5 L 1093.5 197.0 L 1093.5 198.0 L 1092.0 199.5 L 1088.0 199.5 L 1086.5 201.0 L 1086.5 219.0 L 1085.0 220.5 Z M 980.0 220.5 L 977.0 220.5 L 975.5 219.0 L 972.5 212.0 L 971.0 210.5 L 969.0 210.5 L 967.5 212.0 L 968.5 213.0 L 968.5 219.0 L 967.0 220.5 L 965.0 220.5 L 963.5 219.0 L 963.5 197.0 L 964.0 196.5 L 975.0 196.5 L 979.5 200.0 L 979.5 205.0 L 978.5 207.0 L 975.5 210.0 L 980.5 219.0 L 980.0 220.5 Z M 997.0 220.5 L 993.5 220.0 L 993.5 197.0 L 994.0 196.5 L 997.5 197.0 L 997.5 220.0 L 997.0 220.5 Z M 1062.0 220.5 L 1058.5 220.0 L 1058.5 211.0 L 1057.0 209.5 L 1050.0 209.5 L 1048.5 211.0 L 1048.5 220.0 L 1048.0 220.5 L 1044.5 220.0 L 1044.5 197.0 L 1045.0 196.5 L 1048.5 197.0 L 1048.5 204.0 L 1052.0 206.5 L 1054.0 205.5 L 1055.0 206.5 L 1057.0 206.5 L 1058.5 205.0 L 1058.5 197.0 L 1059.0 196.5 L 1062.5 197.0 L 1062.5 220.0 L 1062.0 220.5 Z M 974.5 206.0 L 975.5 205.0 L 975.5 202.0 L 973.0 199.5 L 969.0 199.5 L 967.5 201.0 L 968.5 202.0 L 968.5 205.0 L 970.0 206.5 L 974.5 206.0 Z" fill="#d71920" fill-rule="evenodd"/>
<path d="M 1245.0 101.5 L 1240.0 101.5 L 1238.0 100.5 L 1236.5 98.0 L 1236.5 92.0 L 1241.0 88.5 L 1244.0 88.5 L 1248.5 92.0 L 1248.5 98.0 L 1245.0 101.5 Z M 332.0 154.5 L 331.0 154.5 L 329.5 153.0 L 329.5 91.0 L 331.0 89.5 L 355.0 89.5 L 356.0 90.5 L 359.0 90.5 L 360.0 91.5 L 362.0 91.5 L 364.0 92.5 L 369.5 98.0 L 371.5 102.0 L 371.5 106.0 L 372.5 107.0 L 372.5 113.0 L 371.5 114.0 L 371.5 117.0 L 370.5 118.0 L 370.5 120.0 L 365.0 126.5 L 359.0 129.5 L 355.0 129.5 L 354.0 130.5 L 342.0 130.5 L 340.5 132.0 L 340.5 153.0 L 340.0 153.5 L 333.0 153.5 L 332.0 154.5 Z M 467.0 155.5 L 463.0 155.5 L 462.0 154.5 L 459.0 154.5 L 457.0 153.5 L 455.0 151.5 L 453.5 151.0 L 450.5 147.0 L 448.5 143.0 L 448.5 140.0 L 447.5 139.0 L 447.5 124.0 L 448.5 123.0 L 448.5 120.0 L 450.5 116.0 L 452.5 114.0 L 452.5 113.0 L 455.0 110.5 L 459.0 108.5 L 461.0 108.5 L 462.0 107.5 L 468.0 107.5 L 469.0 108.5 L 471.0 108.5 L 473.0 109.5 L 475.0 111.5 L 476.5 110.0 L 476.5 103.0 L 477.5 102.0 L 477.5 98.0 L 476.5 97.0 L 476.5 93.0 L 477.5 92.0 L 477.5 90.0 L 478.0 89.5 L 487.0 89.5 L 487.5 90.0 L 487.5 153.0 L 486.0 154.5 L 479.0 154.5 L 476.0 150.5 L 474.0 152.5 L 470.0 154.5 L 468.0 154.5 L 467.0 155.5 Z M 666.0 155.5 L 662.0 155.5 L 661.0 154.5 L 658.0 154.5 L 652.0 151.5 L 648.5 147.0 L 646.5 141.0 L 648.0 139.5 L 654.0 139.5 L 656.0 138.5 L 657.5 142.0 L 662.0 145.5 L 667.0 145.5 L 670.5 143.0 L 672.5 139.0 L 672.5 90.0 L 673.0 89.5 L 683.0 89.5 L 683.5 90.0 L 683.5 141.0 L 682.5 142.0 L 682.5 144.0 L 680.5 148.0 L 676.0 152.5 L 674.0 153.5 L 672.0 153.5 L 671.0 154.5 L 667.0 154.5 L 666.0 155.5 Z M 991.0 154.5 L 982.0 154.5 L 981.5 150.0 L 980.5 149.0 L 981.5 147.0 L 981.5 132.0 L 980.5 131.0 L 980.5 129.0 L 981.5 128.0 L 981.5 118.0 L 980.5 117.0 L 980.5 113.0 L 981.5 112.0 L 981.5 101.0 L 980.5 100.0 L 980.5 91.0 L 982.0 89.5 L 1006.0 89.5 L 1007.0 90.5 L 1010.0 90.5 L 1011.0 91.5 L 1013.0 91.5 L 1015.0 92.5 L 1021.5 99.0 L 1022.5 101.0 L 1022.5 103.0 L 1023.5 104.0 L 1023.5 115.0 L 1022.5 116.0 L 1022.5 119.0 L 1021.5 121.0 L 1015.0 127.5 L 1013.0 128.5 L 1011.0 128.5 L 1010.0 129.5 L 1005.0 129.5 L 1004.0 130.5 L 994.0 130.5 L 992.5 132.0 L 992.5 153.0 L 991.0 154.5 Z M 1208.0 155.5 L 1201.0 154.5 L 1197.0 152.5 L 1192.5 148.0 L 1190.5 144.0 L 1190.5 142.0 L 1189.5 141.0 L 1189.5 136.0 L 1188.5 135.0 L 1188.5 128.0 L 1189.5 127.0 L 1189.5 122.0 L 1190.5 121.0 L 1190.5 119.0 L 1192.5 115.0 L 1198.0 109.5 L 1200.0 108.5 L 1203.0 108.5 L 1204.0 107.5 L 1209.0 107.5 L 1210.0 108.5 L 1213.0 108.5 L 1217.0 111.5 L 1218.5 110.0 L 1218.5 90.0 L 1219.0 89.5 L 1229.0 89.5 L 1229.5 90.0 L 1229.5 153.0 L 1228.0 154.5 L 1220.0 154.5 L 1217.0 150.5 L 1214.0 153.5 L 1212.0 154.5 L 1209.0 154.5 L 1208.0 155.5 Z M 833.0 154.5 L 822.0 154.5 L 820.0 153.5 L 815.5 149.0 L 815.5 146.0 L 814.5 145.0 L 814.5 119.0 L 813.0 117.5 L 808.0 117.5 L 807.5 117.0 L 807.5 110.0 L 809.0 108.5 L 813.0 108.5 L 814.5 107.0 L 814.5 98.0 L 816.0 96.5 L 825.0 96.5 L 825.5 97.0 L 825.5 107.0 L 827.0 108.5 L 834.0 108.5 L 834.5 109.0 L 834.5 117.0 L 834.0 117.5 L 827.0 117.5 L 825.5 119.0 L 825.5 143.0 L 828.0 145.5 L 832.0 145.5 L 833.0 144.5 L 834.5 145.0 L 834.5 153.0 L 833.0 154.5 Z M 353.5 120.0 L 356.0 119.5 L 359.5 116.0 L 360.5 114.0 L 360.5 111.0 L 361.5 110.0 L 360.5 109.0 L 360.5 105.0 L 359.5 103.0 L 358.0 101.5 L 354.0 99.5 L 342.0 99.5 L 340.5 101.0 L 340.5 119.0 L 342.0 120.5 L 353.0 120.5 L 353.5 120.0 Z M 1004.5 120.0 L 1007.0 119.5 L 1011.5 115.0 L 1011.5 112.0 L 1012.5 111.0 L 1012.5 109.0 L 1011.5 108.0 L 1011.5 105.0 L 1010.5 103.0 L 1009.0 101.5 L 1005.0 99.5 L 994.0 99.5 L 992.5 101.0 L 992.5 119.0 L 994.0 120.5 L 1004.0 120.5 L 1004.5 120.0 Z M 396.0 155.5 L 392.0 155.5 L 391.0 154.5 L 388.0 154.5 L 387.0 153.5 L 385.0 153.5 L 383.0 152.5 L 377.5 147.0 L 375.5 143.0 L 375.5 141.0 L 374.5 140.0 L 374.5 135.0 L 373.5 134.0 L 373.5 130.0 L 374.5 129.0 L 374.5 123.0 L 375.5 122.0 L 375.5 120.0 L 377.5 116.0 L 383.0 110.5 L 387.0 108.5 L 389.0 108.5 L 390.0 107.5 L 398.0 107.5 L 399.0 108.5 L 401.0 108.5 L 405.0 110.5 L 410.5 116.0 L 412.5 120.0 L 412.5 123.0 L 413.5 124.0 L 413.5 134.0 L 413.0 134.5 L 386.0 134.5 L 384.5 136.0 L 385.5 137.0 L 385.5 140.0 L 386.5 142.0 L 391.0 145.5 L 398.0 145.5 L 400.0 144.5 L 402.5 142.0 L 403.0 140.5 L 410.0 141.5 L 412.5 143.0 L 412.5 145.0 L 407.0 151.5 L 406.0 151.5 L 404.0 153.5 L 402.0 153.5 L 401.0 154.5 L 397.0 154.5 L 396.0 155.5 Z M 429.0 154.5 L 420.0 154.5 L 419.5 154.0 L 419.5 109.0 L 420.0 108.5 L 429.0 108.5 L 429.5 111.0 L 431.0 112.5 L 434.0 109.5 L 436.0 108.5 L 438.0 108.5 L 439.0 107.5 L 443.0 107.5 L 444.5 109.0 L 444.5 118.0 L 444.0 118.5 L 436.0 118.5 L 431.5 123.0 L 430.5 125.0 L 430.5 153.0 L 429.0 154.5 Z M 509.0 155.5 L 502.0 154.5 L 495.5 150.0 L 493.5 146.0 L 493.5 137.0 L 495.5 133.0 L 497.5 131.0 L 499.0 129.5 L 503.0 127.5 L 506.0 127.5 L 507.0 126.5 L 518.0 126.5 L 519.5 125.0 L 519.5 120.0 L 515.0 116.5 L 510.0 116.5 L 508.0 117.5 L 504.0 122.5 L 502.0 122.5 L 501.0 121.5 L 496.0 121.5 L 495.5 118.0 L 497.5 114.0 L 501.0 110.5 L 505.0 108.5 L 508.0 108.5 L 509.0 107.5 L 517.0 107.5 L 518.0 108.5 L 521.0 108.5 L 525.0 111.5 L 526.0 111.5 L 529.5 117.0 L 529.5 120.0 L 530.5 121.0 L 530.5 154.0 L 530.0 154.5 L 522.0 154.5 L 519.0 150.5 L 516.0 153.5 L 514.0 154.5 L 510.0 154.5 L 509.0 155.5 Z M 575.0 154.5 L 574.0 153.5 L 568.0 153.5 L 567.0 154.5 L 565.5 153.0 L 565.5 123.0 L 564.5 121.0 L 561.0 117.5 L 555.0 117.5 L 553.0 118.5 L 550.5 121.0 L 550.5 123.0 L 549.5 124.0 L 549.5 153.0 L 548.0 154.5 L 540.0 154.5 L 538.5 153.0 L 538.5 109.0 L 539.0 108.5 L 548.0 108.5 L 548.5 111.0 L 550.0 112.5 L 555.0 108.5 L 558.0 108.5 L 559.0 107.5 L 565.0 107.5 L 566.0 108.5 L 568.0 108.5 L 570.0 109.5 L 573.5 113.0 L 575.5 117.0 L 575.5 121.0 L 576.5 122.0 L 576.5 153.0 L 575.0 154.5 Z M 598.0 155.5 L 595.0 155.5 L 594.0 154.5 L 590.0 154.5 L 588.0 153.5 L 583.5 149.0 L 582.5 147.0 L 582.5 144.0 L 581.5 143.0 L 581.5 139.0 L 582.5 138.0 L 582.5 136.0 L 583.5 134.0 L 588.0 129.5 L 592.0 127.5 L 594.0 127.5 L 595.0 126.5 L 607.0 126.5 L 608.5 125.0 L 608.5 122.0 L 607.5 121.0 L 607.5 119.0 L 604.0 116.5 L 598.0 116.5 L 594.5 119.0 L 593.0 122.5 L 590.0 122.5 L 589.0 121.5 L 585.0 121.5 L 583.5 120.0 L 583.5 119.0 L 586.5 113.0 L 591.0 109.5 L 593.0 108.5 L 596.0 108.5 L 597.0 107.5 L 605.0 107.5 L 606.0 108.5 L 609.0 108.5 L 613.0 110.5 L 616.5 114.0 L 618.5 118.0 L 618.5 151.0 L 619.5 153.0 L 618.0 154.5 L 610.0 154.5 L 607.0 150.5 L 604.0 153.5 L 602.0 154.5 L 599.0 154.5 L 598.0 155.5 Z M 745.0 154.5 L 744.0 153.5 L 739.0 153.5 L 737.0 154.5 L 735.5 153.0 L 735.5 109.0 L 736.0 108.5 L 745.0 108.5 L 748.0 112.5 L 752.0 108.5 L 754.0 108.5 L 755.0 107.5 L 759.0 107.5 L 760.5 109.0 L 760.5 118.0 L 760.0 118.5 L 753.0 118.5 L 751.0 119.5 L 748.5 122.0 L 746.5 126.0 L 746.5 153.0 L 745.0 154.5 Z M 860.0 155.5 L 857.0 155.5 L 856.0 154.5 L 852.0 154.5 L 846.0 151.5 L 840.5 145.0 L 839.5 143.0 L 839.5 140.0 L 838.5 139.0 L 838.5 124.0 L 839.5 123.0 L 839.5 120.0 L 842.5 116.0 L 842.5 115.0 L 847.0 110.5 L 851.0 108.5 L 853.0 108.5 L 854.0 107.5 L 862.0 107.5 L 863.0 108.5 L 868.0 109.5 L 874.5 116.0 L 876.5 120.0 L 876.5 123.0 L 877.5 124.0 L 877.5 134.0 L 877.0 134.5 L 850.0 134.5 L 848.5 136.0 L 849.5 137.0 L 849.5 140.0 L 851.5 142.0 L 851.5 143.0 L 855.0 145.5 L 862.0 145.5 L 864.5 144.0 L 866.5 142.0 L 867.0 140.5 L 870.0 140.5 L 871.0 141.5 L 873.0 141.5 L 874.0 142.5 L 876.5 143.0 L 874.5 148.0 L 871.0 151.5 L 870.0 151.5 L 868.0 153.5 L 866.0 153.5 L 865.0 154.5 L 861.0 154.5 L 860.0 155.5 Z M 893.0 154.5 L 884.0 154.5 L 882.5 153.0 L 882.5 145.0 L 883.5 144.0 L 883.5 139.0 L 882.5 138.0 L 882.5 118.0 L 883.5 117.0 L 883.5 109.0 L 884.0 108.5 L 893.0 108.5 L 893.5 111.0 L 895.0 112.5 L 898.0 109.5 L 900.0 108.5 L 902.0 108.5 L 903.0 107.5 L 907.0 107.5 L 908.5 109.0 L 908.5 118.0 L 908.0 118.5 L 900.0 118.5 L 895.5 123.0 L 894.5 125.0 L 894.5 128.0 L 893.5 129.0 L 893.5 134.0 L 894.5 135.0 L 894.5 153.0 L 893.0 154.5 Z M 927.0 155.5 L 923.0 155.5 L 922.0 154.5 L 919.0 154.5 L 917.0 153.5 L 912.5 149.0 L 911.5 147.0 L 911.5 144.0 L 910.5 143.0 L 911.5 136.0 L 913.5 132.0 L 915.0 131.5 L 918.0 128.5 L 920.0 128.5 L 924.0 126.5 L 936.0 126.5 L 937.5 125.0 L 937.5 122.0 L 936.5 121.0 L 936.5 119.0 L 933.0 116.5 L 927.0 116.5 L 923.5 119.0 L 922.0 122.5 L 919.0 122.5 L 918.0 121.5 L 914.0 121.5 L 912.5 120.0 L 912.5 119.0 L 915.5 113.0 L 920.0 109.5 L 922.0 109.5 L 926.0 107.5 L 934.0 107.5 L 935.0 108.5 L 938.0 108.5 L 942.0 110.5 L 945.5 114.0 L 946.5 116.0 L 946.5 118.0 L 947.5 119.0 L 947.5 151.0 L 948.5 153.0 L 947.0 154.5 L 939.0 154.5 L 936.0 151.5 L 931.0 154.5 L 928.0 154.5 L 927.0 155.5 Z M 1048.0 155.5 L 1039.0 154.5 L 1035.0 152.5 L 1033.0 150.5 L 1032.0 150.5 L 1029.5 148.0 L 1026.5 142.0 L 1026.5 139.0 L 1025.5 138.0 L 1025.5 125.0 L 1026.5 124.0 L 1026.5 122.0 L 1027.5 121.0 L 1027.5 119.0 L 1028.5 117.0 L 1033.0 111.5 L 1034.0 111.5 L 1036.0 109.5 L 1038.0 109.5 L 1042.0 107.5 L 1050.0 107.5 L 1051.0 108.5 L 1053.0 108.5 L 1057.0 110.5 L 1061.5 115.0 L 1064.5 121.0 L 1064.5 126.0 L 1065.5 127.0 L 1065.5 133.0 L 1064.0 134.5 L 1038.0 134.5 L 1036.5 136.0 L 1037.5 141.0 L 1041.0 144.5 L 1043.0 145.5 L 1050.0 145.5 L 1055.0 140.5 L 1058.0 140.5 L 1059.0 141.5 L 1061.0 141.5 L 1063.5 143.0 L 1063.5 145.0 L 1062.5 147.0 L 1057.0 152.5 L 1053.0 154.5 L 1049.0 154.5 L 1048.0 155.5 Z M 1072.0 154.5 L 1071.5 154.0 L 1071.5 109.0 L 1072.0 108.5 L 1081.0 108.5 L 1081.5 111.0 L 1083.0 112.5 L 1086.0 109.5 L 1088.0 108.5 L 1090.0 108.5 L 1091.0 107.5 L 1094.0 107.5 L 1096.5 109.0 L 1096.5 117.0 L 1095.0 118.5 L 1089.0 118.5 L 1087.0 119.5 L 1083.5 123.0 L 1082.5 125.0 L 1082.5 127.0 L 1081.5 128.0 L 1081.5 153.0 L 1081.0 153.5 L 1073.0 153.5 L 1072.0 154.5 Z M 1182.0 154.5 L 1181.0 153.5 L 1175.0 153.5 L 1174.0 154.5 L 1172.5 153.0 L 1172.5 123.0 L 1171.5 121.0 L 1168.0 117.5 L 1162.0 117.5 L 1160.0 118.5 L 1158.5 120.0 L 1156.5 124.0 L 1156.5 153.0 L 1154.0 153.5 L 1153.0 154.5 L 1147.0 154.5 L 1145.5 153.0 L 1145.5 109.0 L 1146.0 108.5 L 1155.0 108.5 L 1155.5 110.0 L 1158.0 112.5 L 1161.0 109.5 L 1165.0 107.5 L 1172.0 107.5 L 1173.0 108.5 L 1175.0 108.5 L 1177.0 109.5 L 1181.5 114.0 L 1182.5 116.0 L 1182.5 119.0 L 1183.5 120.0 L 1183.5 153.0 L 1182.0 154.5 Z M 1292.0 154.5 L 1283.0 154.5 L 1282.5 154.0 L 1282.5 125.0 L 1281.5 124.0 L 1281.5 121.0 L 1278.0 117.5 L 1272.0 117.5 L 1270.0 118.5 L 1266.5 123.0 L 1266.5 152.0 L 1264.0 154.5 L 1263.0 153.5 L 1262.0 154.5 L 1257.0 154.5 L 1255.5 153.0 L 1255.5 109.0 L 1256.0 108.5 L 1265.0 108.5 L 1265.5 111.0 L 1267.0 112.5 L 1272.0 108.5 L 1274.0 108.5 L 1275.0 107.5 L 1282.0 107.5 L 1283.0 108.5 L 1285.0 108.5 L 1287.0 109.5 L 1290.5 113.0 L 1292.5 117.0 L 1292.5 121.0 L 1293.5 122.0 L 1293.5 153.0 L 1292.0 154.5 Z M 1324.0 174.5 L 1314.0 174.5 L 1313.0 173.5 L 1310.0 173.5 L 1306.0 171.5 L 1302.5 168.0 L 1300.5 164.0 L 1301.0 160.5 L 1304.0 160.5 L 1305.0 159.5 L 1310.0 159.5 L 1310.5 161.0 L 1314.0 164.5 L 1316.0 165.5 L 1321.0 165.5 L 1323.0 164.5 L 1326.5 161.0 L 1327.5 159.0 L 1327.5 152.0 L 1328.5 151.0 L 1327.0 149.5 L 1324.0 152.5 L 1320.0 154.5 L 1313.0 154.5 L 1312.0 153.5 L 1310.0 153.5 L 1306.0 151.5 L 1302.5 148.0 L 1300.5 144.0 L 1300.5 142.0 L 1299.5 141.0 L 1299.5 138.0 L 1298.5 137.0 L 1298.5 124.0 L 1299.5 123.0 L 1299.5 120.0 L 1301.5 116.0 L 1304.5 113.0 L 1305.0 111.5 L 1313.0 107.5 L 1319.0 107.5 L 1320.0 108.5 L 1322.0 108.5 L 1324.0 109.5 L 1327.0 112.5 L 1328.5 111.0 L 1329.0 108.5 L 1338.0 108.5 L 1338.5 109.0 L 1338.5 159.0 L 1337.5 160.0 L 1337.5 163.0 L 1335.5 167.0 L 1331.0 171.5 L 1327.0 173.5 L 1325.0 173.5 L 1324.0 174.5 Z M 707.0 155.5 L 700.0 154.5 L 696.0 152.5 L 691.5 146.0 L 691.5 142.0 L 690.5 141.0 L 690.5 110.0 L 692.0 108.5 L 701.0 108.5 L 701.5 109.0 L 701.5 139.0 L 702.5 140.0 L 702.5 142.0 L 705.0 144.5 L 707.0 145.5 L 711.0 145.5 L 713.0 144.5 L 716.5 141.0 L 717.5 139.0 L 717.5 109.0 L 718.0 108.5 L 727.0 108.5 L 728.5 110.0 L 728.5 153.0 L 727.0 154.5 L 718.0 153.5 L 717.5 152.0 L 718.5 151.0 L 717.0 149.5 L 713.0 153.5 L 711.0 154.5 L 708.0 154.5 L 707.0 155.5 Z M 782.0 155.5 L 778.0 155.5 L 777.0 154.5 L 774.0 154.5 L 767.5 149.0 L 767.5 147.0 L 766.5 146.0 L 766.5 143.0 L 765.5 142.0 L 765.5 109.0 L 766.0 108.5 L 775.0 108.5 L 776.5 110.0 L 776.5 140.0 L 777.5 142.0 L 781.0 145.5 L 786.0 145.5 L 788.0 144.5 L 791.5 141.0 L 791.5 138.0 L 792.5 137.0 L 792.5 109.0 L 793.0 108.5 L 802.0 108.5 L 803.5 110.0 L 802.5 111.0 L 802.5 114.0 L 803.5 115.0 L 803.5 119.0 L 802.5 120.0 L 802.5 138.0 L 803.5 139.0 L 803.5 144.0 L 802.5 145.0 L 802.5 154.0 L 802.0 154.5 L 794.0 154.5 L 791.0 150.5 L 786.0 154.5 L 783.0 154.5 L 782.0 155.5 Z M 1117.0 155.5 L 1110.0 154.5 L 1106.0 152.5 L 1103.5 150.0 L 1101.5 146.0 L 1101.5 142.0 L 1100.5 141.0 L 1100.5 110.0 L 1102.0 108.5 L 1111.0 108.5 L 1111.5 109.0 L 1111.5 140.0 L 1112.5 142.0 L 1116.0 145.5 L 1121.0 145.5 L 1123.0 144.5 L 1126.5 141.0 L 1126.5 139.0 L 1127.5 138.0 L 1127.5 109.0 L 1128.0 108.5 L 1137.0 108.5 L 1138.5 110.0 L 1138.5 153.0 L 1137.0 154.5 L 1136.0 153.5 L 1135.0 154.5 L 1129.0 154.5 L 1126.0 150.5 L 1123.0 153.5 L 1121.0 154.5 L 1118.0 154.5 L 1117.0 155.5 Z M 1246.0 154.5 L 1238.0 154.5 L 1236.5 153.0 L 1236.5 110.0 L 1238.0 108.5 L 1247.0 108.5 L 1247.5 109.0 L 1247.5 153.0 L 1246.0 154.5 Z M 401.5 126.0 L 402.5 125.0 L 402.5 123.0 L 401.5 121.0 L 398.0 117.5 L 396.0 116.5 L 392.0 116.5 L 390.0 117.5 L 386.5 121.0 L 385.5 123.0 L 385.5 125.0 L 387.0 126.5 L 401.0 126.5 L 401.5 126.0 Z M 865.5 126.0 L 866.5 125.0 L 866.5 123.0 L 864.5 119.0 L 863.0 117.5 L 861.0 117.5 L 860.0 116.5 L 856.0 116.5 L 854.0 117.5 L 850.5 121.0 L 849.5 123.0 L 849.5 125.0 L 851.0 126.5 L 865.0 126.5 L 865.5 126.0 Z M 1053.5 126.0 L 1054.5 125.0 L 1053.5 123.0 L 1053.5 121.0 L 1050.0 117.5 L 1048.0 116.5 L 1043.0 116.5 L 1041.0 117.5 L 1038.5 120.0 L 1037.5 122.0 L 1037.5 124.0 L 1036.5 125.0 L 1038.0 126.5 L 1053.0 126.5 L 1053.5 126.0 Z M 471.5 145.0 L 475.5 141.0 L 476.5 139.0 L 476.5 136.0 L 477.5 135.0 L 477.5 128.0 L 476.5 127.0 L 476.5 124.0 L 474.5 120.0 L 473.0 118.5 L 471.0 117.5 L 465.0 117.5 L 460.5 121.0 L 459.5 123.0 L 459.5 126.0 L 458.5 127.0 L 458.5 135.0 L 459.5 136.0 L 459.5 140.0 L 460.5 142.0 L 465.0 145.5 L 471.0 145.5 L 471.5 145.0 Z M 1212.5 145.0 L 1214.0 144.5 L 1216.5 142.0 L 1217.5 140.0 L 1217.5 138.0 L 1218.5 137.0 L 1218.5 125.0 L 1217.5 124.0 L 1217.5 122.0 L 1213.0 117.5 L 1206.0 117.5 L 1202.5 120.0 L 1201.5 122.0 L 1201.5 124.0 L 1200.5 125.0 L 1200.5 138.0 L 1201.5 139.0 L 1201.5 141.0 L 1206.0 145.5 L 1212.0 145.5 L 1212.5 145.0 Z M 1322.5 144.0 L 1324.0 143.5 L 1327.5 139.0 L 1327.5 135.0 L 1328.5 134.0 L 1328.5 128.0 L 1327.5 127.0 L 1327.5 124.0 L 1326.5 123.0 L 1326.5 121.0 L 1324.0 118.5 L 1322.0 117.5 L 1315.0 117.5 L 1311.5 121.0 L 1310.5 123.0 L 1310.5 127.0 L 1309.5 128.0 L 1309.5 134.0 L 1310.5 135.0 L 1310.5 139.0 L 1311.5 141.0 L 1315.0 144.5 L 1322.0 144.5 L 1322.5 144.0 Z M 513.5 146.0 L 517.0 144.5 L 519.5 141.0 L 519.5 135.0 L 518.0 133.5 L 513.0 133.5 L 512.0 134.5 L 509.0 134.5 L 504.5 138.0 L 504.5 143.0 L 507.0 145.5 L 509.0 146.5 L 513.5 146.0 Z M 602.5 146.0 L 604.0 145.5 L 607.5 142.0 L 608.5 140.0 L 608.5 135.0 L 607.0 133.5 L 601.0 133.5 L 600.0 134.5 L 597.0 134.5 L 593.5 138.0 L 592.5 140.0 L 592.5 142.0 L 595.0 145.5 L 597.0 146.5 L 602.0 146.5 L 602.5 146.0 Z M 931.5 146.0 L 933.0 145.5 L 936.5 142.0 L 936.5 140.0 L 937.5 139.0 L 937.5 135.0 L 936.0 133.5 L 930.0 133.5 L 929.0 134.5 L 926.0 134.5 L 924.0 135.5 L 921.5 139.0 L 921.5 142.0 L 924.0 145.5 L 926.0 146.5 L 931.0 146.5 L 931.5 146.0 Z M 350.0 219.5 L 348.0 219.5 L 345.5 217.0 L 343.5 212.0 L 341.5 210.0 L 339.5 206.0 L 337.0 203.5 L 335.5 205.0 L 335.5 219.0 L 335.0 219.5 L 333.5 219.0 L 333.5 197.0 L 334.0 196.5 L 336.5 197.0 L 336.5 198.0 L 340.5 203.0 L 341.5 206.0 L 343.5 208.0 L 344.5 211.0 L 347.0 213.5 L 348.5 212.0 L 348.5 197.0 L 349.0 196.5 L 350.5 197.0 L 350.5 219.0 L 350.0 219.5 Z M 380.0 219.5 L 372.0 219.5 L 367.5 216.0 L 367.5 214.0 L 366.5 213.0 L 366.5 203.0 L 369.5 199.0 L 373.0 196.5 L 379.0 196.5 L 381.0 197.5 L 384.5 201.0 L 385.5 203.0 L 385.5 213.0 L 383.5 217.0 L 380.0 219.5 Z M 407.0 219.5 L 404.5 219.0 L 405.5 218.0 L 405.5 202.0 L 404.5 201.0 L 405.5 200.0 L 404.0 198.5 L 399.0 198.5 L 398.5 198.0 L 399.0 196.5 L 414.0 196.5 L 414.5 197.0 L 414.0 198.5 L 409.0 198.5 L 407.5 200.0 L 407.5 219.0 L 407.0 219.5 Z M 460.0 219.5 L 447.0 219.5 L 446.5 219.0 L 447.5 218.0 L 447.5 197.0 L 448.0 196.5 L 459.0 196.5 L 460.5 198.0 L 460.0 198.5 L 451.0 198.5 L 449.5 200.0 L 449.5 205.0 L 451.0 206.5 L 458.0 206.5 L 458.5 207.0 L 458.0 208.5 L 451.0 208.5 L 450.0 209.5 L 449.5 210.0 L 449.5 216.0 L 451.0 217.5 L 460.0 217.5 L 460.5 218.0 L 460.0 219.5 Z M 484.0 219.5 L 482.0 219.5 L 480.5 218.0 L 480.5 216.0 L 479.5 215.0 L 479.5 213.0 L 478.5 212.0 L 478.5 210.0 L 477.5 209.0 L 477.5 207.0 L 475.5 203.0 L 475.5 201.0 L 473.5 198.0 L 474.0 196.5 L 476.5 197.0 L 476.5 199.0 L 477.5 200.0 L 477.5 202.0 L 478.5 203.0 L 478.5 205.0 L 480.5 209.0 L 480.5 211.0 L 483.0 214.5 L 485.5 211.0 L 485.5 209.0 L 486.5 208.0 L 486.5 206.0 L 487.5 205.0 L 488.5 200.0 L 489.5 199.0 L 489.5 197.0 L 490.0 196.5 L 492.5 197.0 L 491.5 198.0 L 491.5 200.0 L 490.5 201.0 L 490.5 203.0 L 489.5 204.0 L 489.5 206.0 L 488.5 207.0 L 488.5 209.0 L 487.5 210.0 L 487.5 212.0 L 486.5 213.0 L 485.5 218.0 L 484.0 219.5 Z M 520.0 219.5 L 507.0 219.5 L 506.5 219.0 L 506.5 213.0 L 507.5 212.0 L 506.5 210.0 L 506.5 197.0 L 507.0 196.5 L 519.0 196.5 L 519.5 197.0 L 519.0 198.5 L 511.0 198.5 L 509.5 200.0 L 509.5 205.0 L 511.0 206.5 L 518.0 206.5 L 518.5 207.0 L 518.0 208.5 L 511.0 208.5 L 510.0 209.5 L 509.5 210.0 L 509.5 216.0 L 511.0 217.5 L 520.0 217.5 L 520.5 218.0 L 520.0 219.5 Z M 550.0 219.5 L 548.0 219.5 L 546.5 218.0 L 546.5 216.0 L 544.5 212.0 L 542.0 209.5 L 539.0 209.5 L 537.5 211.0 L 538.5 213.0 L 537.5 218.0 L 538.5 219.0 L 538.0 219.5 L 535.5 219.0 L 536.5 218.0 L 535.5 216.0 L 535.5 197.0 L 536.0 196.5 L 544.0 196.5 L 545.0 197.5 L 547.0 197.5 L 548.5 199.0 L 549.5 201.0 L 549.5 205.0 L 548.5 207.0 L 545.5 209.0 L 545.5 210.0 L 550.5 219.0 L 550.0 219.5 Z M 572.0 219.5 L 570.5 219.0 L 570.5 210.0 L 563.5 198.0 L 564.0 196.5 L 565.0 196.5 L 566.5 198.0 L 569.5 204.0 L 572.0 206.5 L 574.5 204.0 L 577.5 197.0 L 578.0 196.5 L 580.5 197.0 L 577.5 201.0 L 574.5 208.0 L 572.5 210.0 L 572.5 219.0 L 572.0 219.5 Z M 616.0 219.5 L 613.5 219.0 L 613.5 197.0 L 614.0 196.5 L 622.0 196.5 L 623.0 197.5 L 625.0 197.5 L 627.5 200.0 L 627.5 207.0 L 626.0 208.5 L 622.0 210.5 L 618.0 210.5 L 616.5 212.0 L 616.5 219.0 L 616.0 219.5 Z M 657.0 219.5 L 656.0 219.5 L 654.5 218.0 L 651.5 211.0 L 650.0 209.5 L 647.0 209.5 L 645.5 211.0 L 645.5 219.0 L 645.0 219.5 L 643.5 219.0 L 643.5 197.0 L 644.0 196.5 L 652.0 196.5 L 656.5 200.0 L 657.5 202.0 L 657.5 204.0 L 656.5 206.0 L 653.5 209.0 L 653.5 210.0 L 657.5 218.0 L 657.0 219.5 Z M 685.0 219.5 L 678.0 219.5 L 676.0 218.5 L 672.5 215.0 L 672.5 213.0 L 671.5 212.0 L 671.5 205.0 L 672.5 204.0 L 672.5 202.0 L 673.5 200.0 L 678.0 196.5 L 685.0 196.5 L 687.0 197.5 L 689.5 200.0 L 691.5 204.0 L 691.5 212.0 L 690.5 213.0 L 690.5 215.0 L 687.0 218.5 L 685.0 219.5 Z M 712.0 219.5 L 706.0 219.5 L 704.5 218.0 L 704.5 217.0 L 706.0 216.5 L 707.0 217.5 L 710.0 217.5 L 711.5 216.0 L 711.5 198.0 L 713.0 196.5 L 714.0 196.5 L 714.5 197.0 L 714.5 216.0 L 712.0 219.5 Z M 743.0 219.5 L 731.0 219.5 L 730.5 219.0 L 731.5 218.0 L 731.5 214.0 L 730.5 213.0 L 730.5 197.0 L 731.0 196.5 L 743.0 196.5 L 743.5 197.0 L 743.0 198.5 L 735.0 198.5 L 733.5 200.0 L 733.5 205.0 L 735.0 206.5 L 741.0 206.5 L 742.5 208.0 L 742.0 208.5 L 735.0 208.5 L 733.5 210.0 L 733.5 216.0 L 735.0 217.5 L 743.0 217.5 L 743.5 218.0 L 743.0 219.5 Z M 768.0 220.5 L 767.0 219.5 L 764.0 219.5 L 762.0 218.5 L 758.5 214.0 L 758.5 203.0 L 760.0 200.5 L 763.0 197.5 L 765.0 196.5 L 771.0 196.5 L 774.5 199.0 L 774.5 201.0 L 773.0 201.5 L 770.0 198.5 L 766.0 198.5 L 761.5 202.0 L 761.5 204.0 L 760.5 205.0 L 760.5 211.0 L 761.5 212.0 L 761.5 214.0 L 765.0 217.5 L 771.0 217.5 L 773.0 215.5 L 775.5 216.0 L 772.0 219.5 L 769.0 219.5 L 768.0 220.5 Z M 797.0 219.5 L 795.5 219.0 L 795.5 200.0 L 794.0 198.5 L 789.0 198.5 L 788.5 198.0 L 789.0 196.5 L 804.0 196.5 L 804.5 197.0 L 804.0 198.5 L 799.0 198.5 L 797.5 200.0 L 797.5 219.0 L 797.0 219.5 Z M 862.0 219.5 L 859.5 219.0 L 859.5 200.0 L 858.0 198.5 L 853.0 198.5 L 852.5 198.0 L 854.0 196.5 L 869.0 196.5 L 869.5 197.0 L 869.0 198.5 L 864.0 198.5 L 862.5 200.0 L 862.5 219.0 L 862.0 219.5 Z M 900.0 219.5 L 898.5 219.0 L 898.5 210.0 L 897.0 208.5 L 888.0 208.5 L 886.5 210.0 L 886.5 219.0 L 886.0 219.5 L 883.5 219.0 L 883.5 197.0 L 884.0 196.5 L 886.5 197.0 L 886.5 205.0 L 888.0 206.5 L 897.0 206.5 L 898.5 205.0 L 898.5 197.0 L 899.0 196.5 L 900.5 197.0 L 900.5 219.0 L 900.0 219.5 Z M 930.0 219.5 L 918.0 219.5 L 917.5 219.0 L 917.5 197.0 L 918.0 196.5 L 930.0 196.5 L 930.5 197.0 L 930.0 198.5 L 921.0 198.5 L 919.5 200.0 L 919.5 206.0 L 921.0 207.5 L 927.0 207.5 L 928.0 206.5 L 928.5 207.0 L 928.0 208.5 L 921.0 208.5 L 919.5 210.0 L 919.5 216.0 L 921.0 217.5 L 930.0 217.5 L 930.5 218.0 L 930.0 219.5 Z M 1127.0 219.5 L 1124.5 219.0 L 1124.5 197.0 L 1125.0 196.5 L 1133.0 196.5 L 1134.0 197.5 L 1136.0 197.5 L 1137.5 199.0 L 1138.5 201.0 L 1138.5 206.0 L 1135.0 209.5 L 1133.0 209.5 L 1132.0 210.5 L 1129.0 210.5 L 1127.5 212.0 L 1127.5 219.0 L 1127.0 219.5 Z M 1167.0 219.5 L 1166.0 219.5 L 1164.5 218.0 L 1161.5 211.0 L 1160.0 209.5 L 1157.0 209.5 L 1155.5 211.0 L 1155.5 219.0 L 1155.0 219.5 L 1153.5 219.0 L 1153.5 197.0 L 1154.0 196.5 L 1162.0 196.5 L 1166.5 200.0 L 1167.5 202.0 L 1167.5 205.0 L 1166.5 207.0 L 1163.5 210.0 L 1167.5 218.0 L 1167.0 219.5 Z M 1195.0 219.5 L 1187.0 219.5 L 1185.0 218.5 L 1181.5 214.0 L 1181.5 203.0 L 1182.5 201.0 L 1186.0 197.5 L 1188.0 196.5 L 1194.0 196.5 L 1196.0 197.5 L 1199.5 201.0 L 1200.5 203.0 L 1200.5 213.0 L 1198.5 217.0 L 1195.0 219.5 Z M 1220.0 219.5 L 1214.0 219.5 L 1212.5 218.0 L 1214.0 216.5 L 1215.0 217.5 L 1218.0 217.5 L 1220.5 215.0 L 1220.5 197.0 L 1222.0 196.5 L 1222.5 197.0 L 1222.5 216.0 L 1220.0 219.5 Z M 1252.0 219.5 L 1239.0 219.5 L 1238.5 219.0 L 1238.5 197.0 L 1239.0 196.5 L 1251.0 196.5 L 1251.5 197.0 L 1251.0 198.5 L 1243.0 198.5 L 1241.5 200.0 L 1241.5 206.0 L 1243.0 207.5 L 1244.0 206.5 L 1250.0 206.5 L 1250.5 207.0 L 1250.0 208.5 L 1243.0 208.5 L 1241.5 210.0 L 1241.5 216.0 L 1243.0 217.5 L 1251.0 217.5 L 1252.5 219.0 L 1252.0 219.5 Z M 1279.0 219.5 L 1272.0 219.5 L 1270.0 218.5 L 1266.5 215.0 L 1266.5 213.0 L 1265.5 212.0 L 1265.5 204.0 L 1267.5 200.0 L 1272.0 196.5 L 1279.0 196.5 L 1282.5 200.0 L 1281.0 201.5 L 1278.0 198.5 L 1273.0 198.5 L 1269.5 202.0 L 1268.5 204.0 L 1268.5 213.0 L 1269.5 215.0 L 1272.0 217.5 L 1274.0 217.5 L 1275.0 218.5 L 1277.0 217.5 L 1279.0 217.5 L 1281.0 215.5 L 1282.0 215.5 L 1282.5 217.0 L 1279.0 219.5 Z M 1304.0 219.5 L 1301.5 219.0 L 1302.5 218.0 L 1302.5 216.0 L 1301.5 215.0 L 1301.5 213.0 L 1302.5 212.0 L 1302.5 200.0 L 1301.0 198.5 L 1296.0 198.5 L 1295.5 198.0 L 1296.0 196.5 L 1311.0 196.5 L 1311.5 197.0 L 1311.0 198.5 L 1306.0 198.5 L 1304.5 200.0 L 1304.5 219.0 L 1304.0 219.5 Z M 1334.0 219.5 L 1327.0 219.5 L 1323.5 217.0 L 1325.0 215.5 L 1327.0 217.5 L 1329.0 217.5 L 1331.0 218.5 L 1335.5 215.0 L 1335.5 212.0 L 1334.0 210.5 L 1327.0 207.5 L 1324.5 205.0 L 1324.5 200.0 L 1329.0 196.5 L 1334.0 196.5 L 1336.5 198.0 L 1336.0 200.5 L 1333.0 198.5 L 1329.0 198.5 L 1326.5 201.0 L 1326.5 203.0 L 1330.0 206.5 L 1332.0 207.5 L 1334.0 207.5 L 1337.5 211.0 L 1337.5 216.0 L 1336.5 218.0 L 1334.0 219.5 Z M 377.5 218.0 L 379.0 217.5 L 382.5 214.0 L 383.5 212.0 L 383.5 205.0 L 381.5 201.0 L 380.0 199.5 L 378.0 198.5 L 374.0 198.5 L 370.5 201.0 L 368.5 205.0 L 368.5 212.0 L 369.5 214.0 L 373.0 217.5 L 375.0 218.5 L 377.5 218.0 Z M 544.5 207.0 L 547.5 204.0 L 547.5 202.0 L 544.0 198.5 L 539.0 198.5 L 537.5 200.0 L 538.5 201.0 L 538.5 206.0 L 540.0 207.5 L 544.5 207.0 Z M 622.5 208.0 L 625.5 205.0 L 625.5 202.0 L 622.0 198.5 L 618.0 198.5 L 616.5 200.0 L 616.5 207.0 L 618.0 208.5 L 622.5 208.0 Z M 652.5 207.0 L 654.5 205.0 L 654.5 201.0 L 652.0 198.5 L 647.0 198.5 L 645.5 200.0 L 645.5 206.0 L 647.0 207.5 L 652.0 207.5 L 652.5 207.0 Z M 683.5 218.0 L 685.0 217.5 L 688.5 213.0 L 688.5 204.0 L 687.5 202.0 L 684.0 198.5 L 679.0 198.5 L 675.5 202.0 L 674.5 204.0 L 674.5 213.0 L 678.0 217.5 L 680.0 217.5 L 681.0 218.5 L 683.5 218.0 Z M 1132.5 208.0 L 1135.5 206.0 L 1136.5 203.0 L 1133.0 198.5 L 1128.0 198.5 L 1126.5 200.0 L 1126.5 205.0 L 1129.0 208.5 L 1132.5 208.0 Z M 1162.5 207.0 L 1165.5 203.0 L 1164.5 201.0 L 1162.0 198.5 L 1157.0 198.5 L 1155.5 200.0 L 1155.5 206.0 L 1157.0 207.5 L 1162.0 207.5 L 1162.5 207.0 Z M 1192.5 218.0 L 1194.0 217.5 L 1197.5 214.0 L 1198.5 212.0 L 1198.5 205.0 L 1197.5 204.0 L 1197.5 202.0 L 1195.0 199.5 L 1193.0 198.5 L 1189.0 198.5 L 1184.5 202.0 L 1184.5 204.0 L 1183.5 205.0 L 1183.5 212.0 L 1184.5 214.0 L 1188.0 217.5 L 1190.0 218.5 L 1192.5 218.0 Z" fill="#111111" fill-rule="evenodd"/>
<path d="M 488.0 154.5 L 486.5 154.0 L 487.5 153.0 L 487.5 91.0 L 486.0 89.5 L 479.0 89.5 L 477.0 92.5 L 476.5 92.0 L 477.0 88.5 L 488.0 88.5 L 488.5 89.0 L 488.5 154.0 L 488.0 154.5 Z M 1218.0 112.5 L 1216.0 110.5 L 1214.5 110.0 L 1217.5 108.0 L 1217.5 90.0 L 1219.0 88.5 L 1229.0 88.5 L 1229.5 89.0 L 1229.0 89.5 L 1220.0 89.5 L 1218.5 91.0 L 1218.5 112.0 L 1218.0 112.5 Z M 684.0 138.5 L 683.5 138.0 L 683.5 91.0 L 682.5 90.0 L 683.0 89.5 L 684.5 90.0 L 684.5 138.0 L 684.0 138.5 Z M 672.0 139.5 L 671.5 139.0 L 671.5 91.0 L 672.0 90.5 L 672.5 91.0 L 672.5 139.0 L 672.0 139.5 Z M 175.0 109.5 L 174.5 109.0 L 174.5 95.0 L 175.0 94.5 L 175.5 95.0 L 175.5 109.0 L 175.0 109.5 Z M 65.0 107.5 L 64.5 107.0 L 64.5 97.0 L 65.0 96.5 L 65.5 97.0 L 65.5 107.0 L 65.0 107.5 Z M 353.0 120.5 L 342.0 120.5 L 340.5 119.0 L 340.5 100.0 L 341.0 99.5 L 341.5 100.0 L 341.5 118.0 L 343.0 119.5 L 353.0 119.5 L 353.5 120.0 L 353.0 120.5 Z M 1004.0 120.5 L 993.0 120.5 L 992.5 120.0 L 992.5 100.0 L 993.0 99.5 L 994.5 101.0 L 993.5 102.0 L 993.5 118.0 L 995.0 119.5 L 1004.0 119.5 L 1004.5 120.0 L 1004.0 120.5 Z M 1005.0 100.5 L 995.0 100.5 L 994.5 100.0 L 995.0 99.5 L 1005.0 99.5 L 1005.5 100.0 L 1005.0 100.5 Z M 981.0 112.5 L 980.5 112.0 L 980.5 101.0 L 981.0 100.5 L 981.5 101.0 L 981.5 112.0 L 981.0 112.5 Z M 549.0 113.5 L 548.5 110.0 L 547.0 108.5 L 542.0 108.5 L 541.5 108.0 L 542.0 107.5 L 548.0 107.5 L 549.5 109.0 L 549.0 113.5 Z M 761.0 118.5 L 760.5 118.0 L 760.5 109.0 L 759.5 108.0 L 760.0 107.5 L 761.5 108.0 L 761.5 118.0 L 761.0 118.5 Z M 792.0 137.5 L 791.5 137.0 L 791.5 109.0 L 793.0 107.5 L 799.0 107.5 L 799.5 108.0 L 799.0 108.5 L 794.0 108.5 L 792.5 110.0 L 792.5 137.0 L 792.0 137.5 Z M 1256.0 154.5 L 1254.5 154.0 L 1254.5 109.0 L 1256.0 107.5 L 1261.0 107.5 L 1261.5 108.0 L 1261.0 108.5 L 1257.0 108.5 L 1255.5 110.0 L 1255.5 153.0 L 1256.5 154.0 L 1256.0 154.5 Z M 419.0 154.5 L 418.5 154.0 L 418.5 109.0 L 420.0 108.5 L 420.5 109.0 L 419.5 110.0 L 419.5 154.0 L 419.0 154.5 Z M 430.0 114.5 L 429.5 110.0 L 428.5 109.0 L 429.0 108.5 L 430.0 108.5 L 432.5 111.0 L 430.0 114.5 Z M 539.0 154.5 L 537.5 154.0 L 537.5 109.0 L 538.0 108.5 L 539.5 109.0 L 538.5 110.0 L 538.5 153.0 L 539.5 154.0 L 539.0 154.5 Z M 702.0 139.5 L 701.5 139.0 L 701.5 109.0 L 702.0 108.5 L 702.5 109.0 L 702.5 139.0 L 702.0 139.5 Z M 1071.0 154.5 L 1070.5 154.0 L 1070.5 109.0 L 1072.0 108.5 L 1072.5 109.0 L 1071.5 110.0 L 1071.5 152.0 L 1072.5 153.0 L 1071.0 154.5 Z M 1248.0 154.5 L 1246.5 154.0 L 1247.5 153.0 L 1247.5 109.0 L 1248.0 108.5 L 1248.5 109.0 L 1248.5 154.0 L 1248.0 154.5 Z M 1267.0 113.5 L 1265.5 113.0 L 1265.5 110.0 L 1264.5 109.0 L 1265.0 108.5 L 1266.0 108.5 L 1268.5 111.0 L 1267.0 113.5 Z M 1112.0 140.5 L 1111.5 140.0 L 1111.5 110.0 L 1112.0 109.5 L 1112.5 110.0 L 1112.5 140.0 L 1112.0 140.5 Z M 1127.0 131.5 L 1126.5 131.0 L 1126.5 110.0 L 1127.0 109.5 L 1127.5 110.0 L 1127.5 131.0 L 1127.0 131.5 Z M 1339.0 156.5 L 1338.5 156.0 L 1338.5 110.0 L 1339.0 109.5 L 1339.5 110.0 L 1339.5 156.0 L 1339.0 156.5 Z M 765.0 140.5 L 764.5 140.0 L 764.5 116.0 L 765.0 115.5 L 765.5 116.0 L 765.5 140.0 L 765.0 140.5 Z M 175.0 127.5 L 174.5 127.0 L 174.5 117.0 L 175.0 116.5 L 175.5 117.0 L 175.5 127.0 L 175.0 127.5 Z M 729.0 137.5 L 728.5 137.0 L 728.5 117.0 L 729.0 116.5 L 729.5 117.0 L 729.5 137.0 L 729.0 137.5 Z M 735.0 134.5 L 734.5 134.0 L 734.5 117.0 L 735.0 116.5 L 735.5 117.0 L 735.5 134.0 L 735.0 134.5 Z M 814.0 143.5 L 813.5 143.0 L 813.5 120.0 L 812.0 118.5 L 809.0 118.5 L 808.5 118.0 L 809.0 117.5 L 814.0 117.5 L 814.5 118.0 L 814.5 143.0 L 814.0 143.5 Z M 981.0 128.5 L 980.5 128.0 L 980.5 118.0 L 981.0 117.5 L 981.5 118.0 L 981.5 128.0 L 981.0 128.5 Z M 948.0 151.5 L 947.5 151.0 L 947.5 119.0 L 948.0 118.5 L 948.5 119.0 L 948.5 151.0 L 948.0 151.5 Z M 619.0 151.5 L 618.5 151.0 L 618.5 120.0 L 619.0 119.5 L 619.5 120.0 L 619.5 151.0 L 619.0 151.5 Z M 803.0 138.5 L 802.5 138.0 L 802.5 120.0 L 803.0 119.5 L 803.5 120.0 L 803.5 138.0 L 803.0 138.5 Z M 1184.0 153.5 L 1183.5 153.0 L 1183.5 121.0 L 1184.0 120.5 L 1184.5 121.0 L 1184.5 153.0 L 1184.0 153.5 Z M 531.0 154.5 L 530.5 154.0 L 530.5 122.0 L 531.0 121.5 L 531.5 122.0 L 531.5 154.0 L 531.0 154.5 Z M 607.0 126.5 L 597.0 126.5 L 596.5 126.0 L 597.0 125.5 L 606.0 125.5 L 607.5 124.0 L 608.0 121.5 L 608.5 125.0 L 607.0 126.5 Z M 936.0 126.5 L 927.0 126.5 L 926.5 126.0 L 927.0 125.5 L 935.0 125.5 L 936.5 124.0 L 937.0 121.5 L 937.5 125.0 L 936.0 126.5 Z M 565.0 153.5 L 564.5 153.0 L 564.5 123.0 L 565.0 122.5 L 565.5 123.0 L 565.5 153.0 L 565.0 153.5 Z M 1172.0 153.5 L 1171.5 153.0 L 1171.5 123.0 L 1172.0 122.5 L 1172.5 123.0 L 1172.5 153.0 L 1172.0 153.5 Z M 1156.0 154.5 L 1153.5 154.0 L 1156.5 152.0 L 1156.5 124.0 L 1157.0 123.5 L 1157.5 124.0 L 1157.5 153.0 L 1156.0 154.5 Z M 400.0 126.5 L 387.0 126.5 L 386.5 125.0 L 387.0 124.5 L 388.0 125.5 L 400.0 125.5 L 400.5 126.0 L 400.0 126.5 Z M 777.0 135.5 L 776.5 135.0 L 776.5 125.0 L 777.0 124.5 L 777.5 125.0 L 777.5 135.0 L 777.0 135.5 Z M 838.0 138.5 L 837.5 138.0 L 837.5 125.0 L 838.0 124.5 L 838.5 125.0 L 838.5 138.0 L 838.0 138.5 Z M 1218.0 137.5 L 1217.5 137.0 L 1217.5 125.0 L 1218.0 124.5 L 1218.5 125.0 L 1218.5 137.0 L 1218.0 137.5 Z M 1282.0 154.5 L 1281.5 154.0 L 1281.5 125.0 L 1282.0 124.5 L 1282.5 125.0 L 1282.5 154.0 L 1282.0 154.5 Z M 747.0 153.5 L 746.5 153.0 L 746.5 126.0 L 747.0 125.5 L 747.5 126.0 L 747.5 153.0 L 747.0 153.5 Z M 1052.0 126.5 L 1039.0 126.5 L 1038.5 126.0 L 1039.0 125.5 L 1052.0 125.5 L 1052.5 126.0 L 1052.0 126.5 Z M 1082.0 154.5 L 1073.0 154.5 L 1072.5 154.0 L 1073.0 153.5 L 1080.0 153.5 L 1081.5 152.0 L 1081.5 128.0 L 1082.0 127.5 L 1082.5 128.0 L 1082.5 154.0 L 1082.0 154.5 Z M 341.0 154.5 L 333.0 154.5 L 332.5 154.0 L 333.0 153.5 L 339.0 153.5 L 340.5 152.0 L 340.5 131.0 L 341.0 130.5 L 341.5 131.0 L 341.5 154.0 L 341.0 154.5 Z M 993.0 152.5 L 992.5 152.0 L 992.5 131.0 L 993.0 130.5 L 993.5 131.0 L 993.5 152.0 L 993.0 152.5 Z M 981.0 147.5 L 980.5 147.0 L 980.5 132.0 L 981.0 131.5 L 981.5 132.0 L 981.5 147.0 L 981.0 147.5 Z M 608.0 140.5 L 607.5 136.0 L 606.0 134.5 L 601.0 134.5 L 600.5 134.0 L 601.0 133.5 L 607.0 133.5 L 608.5 135.0 L 608.5 140.0 L 608.0 140.5 Z M 937.0 139.5 L 936.5 136.0 L 935.0 134.5 L 930.0 134.5 L 929.5 134.0 L 930.0 133.5 L 936.0 133.5 L 937.5 135.0 L 937.0 139.5 Z M 412.0 135.5 L 392.0 135.5 L 391.5 135.0 L 392.0 134.5 L 412.0 134.5 L 412.5 135.0 L 412.0 135.5 Z M 876.0 135.5 L 862.0 135.5 L 861.5 135.0 L 862.0 134.5 L 876.0 134.5 L 876.5 135.0 L 876.0 135.5 Z M 1063.0 135.5 L 1045.0 135.5 L 1044.5 135.0 L 1045.0 134.5 L 1063.0 134.5 L 1063.5 135.0 L 1063.0 135.5 Z M 735.0 146.5 L 734.5 146.0 L 734.5 136.0 L 735.0 135.5 L 735.5 136.0 L 735.5 146.0 L 735.0 146.5 Z M 175.0 151.5 L 174.5 151.0 L 174.5 141.0 L 175.0 140.5 L 175.5 141.0 L 175.5 151.0 L 175.0 151.5 Z M 336.0 220.5 L 332.5 220.0 L 332.5 197.0 L 334.0 195.5 L 335.5 196.0 L 333.5 198.0 L 333.5 201.0 L 335.0 202.5 L 336.0 201.5 L 339.5 206.0 L 339.0 207.5 L 338.0 206.5 L 336.5 208.0 L 336.5 220.0 L 336.0 220.5 Z M 351.0 220.5 L 346.5 220.0 L 347.0 218.5 L 349.0 219.5 L 350.5 218.0 L 350.5 215.0 L 349.0 213.5 L 347.0 214.5 L 345.0 211.5 L 343.0 213.5 L 342.5 213.0 L 342.5 212.0 L 345.0 209.5 L 346.0 210.5 L 347.5 209.0 L 347.5 197.0 L 349.0 195.5 L 350.0 195.5 L 351.5 197.0 L 351.5 220.0 L 351.0 220.5 Z M 378.0 199.5 L 374.0 199.5 L 373.5 199.0 L 374.5 198.0 L 373.5 196.0 L 378.0 195.5 L 378.5 196.0 L 377.5 198.0 L 378.5 199.0 L 378.0 199.5 Z M 408.0 220.5 L 404.5 220.0 L 405.5 219.0 L 404.5 218.0 L 404.5 202.0 L 405.0 201.5 L 406.0 202.5 L 407.5 201.0 L 406.5 200.0 L 408.5 198.0 L 407.0 196.5 L 405.0 196.5 L 403.5 198.0 L 405.5 200.0 L 405.0 200.5 L 403.0 199.5 L 398.0 199.5 L 397.5 197.0 L 399.0 195.5 L 414.0 195.5 L 415.5 197.0 L 415.5 198.0 L 414.0 199.5 L 410.0 199.5 L 408.5 201.0 L 408.5 220.0 L 408.0 220.5 Z M 460.0 220.5 L 447.0 220.5 L 446.5 220.0 L 448.0 218.5 L 449.0 219.5 L 450.5 218.0 L 449.0 216.5 L 447.0 218.5 L 446.5 218.0 L 446.5 197.0 L 448.0 195.5 L 460.0 195.5 L 460.5 196.0 L 459.5 198.0 L 460.5 199.0 L 460.0 199.5 L 452.0 199.5 L 450.5 201.0 L 450.5 204.0 L 452.0 205.5 L 458.0 205.5 L 459.5 207.0 L 459.0 209.5 L 452.0 209.5 L 450.5 211.0 L 450.5 215.0 L 452.0 216.5 L 460.0 216.5 L 461.5 218.0 L 461.5 219.0 L 460.0 220.5 Z M 492.0 199.5 L 490.0 198.5 L 489.0 199.5 L 488.5 197.0 L 491.0 195.5 L 492.5 198.0 L 492.0 199.5 Z M 520.0 220.5 L 507.0 220.5 L 506.5 220.0 L 509.0 219.5 L 510.5 218.0 L 509.5 217.0 L 509.5 213.0 L 508.5 212.0 L 510.5 208.0 L 509.5 206.0 L 509.5 199.0 L 510.5 198.0 L 509.0 196.5 L 507.0 196.5 L 506.5 196.0 L 507.0 195.5 L 519.0 195.5 L 520.5 197.0 L 520.0 199.5 L 512.0 199.5 L 510.5 201.0 L 510.5 204.0 L 512.0 205.5 L 518.0 205.5 L 519.5 207.0 L 519.0 209.5 L 512.0 209.5 L 510.5 211.0 L 510.5 215.0 L 512.0 216.5 L 520.0 216.5 L 521.5 218.0 L 521.5 219.0 L 520.0 220.5 Z M 538.0 220.5 L 536.0 220.5 L 534.5 219.0 L 534.5 197.0 L 535.0 196.5 L 536.5 197.0 L 535.5 198.0 L 536.5 200.0 L 535.5 201.0 L 535.5 210.0 L 536.5 211.0 L 535.5 213.0 L 535.5 215.0 L 537.0 216.5 L 538.5 215.0 L 538.5 213.0 L 537.5 211.0 L 539.5 209.0 L 538.5 207.0 L 538.5 201.0 L 537.5 200.0 L 539.5 198.0 L 536.5 196.0 L 537.0 195.5 L 543.0 195.5 L 544.0 196.5 L 547.0 196.5 L 547.5 197.0 L 546.0 197.5 L 544.0 199.5 L 541.0 199.5 L 539.5 201.0 L 539.5 205.0 L 541.0 206.5 L 544.5 207.0 L 542.5 209.0 L 543.5 211.0 L 543.0 211.5 L 541.0 210.5 L 539.5 212.0 L 539.5 216.0 L 537.5 219.0 L 538.5 220.0 L 538.0 220.5 Z M 624.0 210.5 L 623.0 210.5 L 621.0 208.5 L 619.0 209.5 L 616.5 208.0 L 616.5 199.0 L 617.5 198.0 L 616.0 196.5 L 615.0 196.5 L 613.5 198.0 L 613.5 207.0 L 613.0 207.5 L 612.5 207.0 L 612.5 197.0 L 614.0 195.5 L 620.0 195.5 L 620.5 196.0 L 619.5 197.0 L 621.0 198.5 L 623.0 196.5 L 624.5 197.0 L 622.0 199.5 L 619.0 199.5 L 617.5 201.0 L 617.5 206.0 L 619.0 207.5 L 622.0 207.5 L 624.5 210.0 L 624.0 210.5 Z M 646.0 220.5 L 642.5 220.0 L 642.5 196.0 L 643.0 195.5 L 651.0 195.5 L 652.0 196.5 L 654.5 197.0 L 652.0 199.5 L 648.0 199.5 L 646.5 201.0 L 646.5 205.0 L 648.0 206.5 L 652.5 207.0 L 649.5 209.0 L 651.5 211.0 L 651.0 212.5 L 649.0 210.5 L 648.0 210.5 L 646.5 212.0 L 646.5 220.0 L 646.0 220.5 Z M 684.0 199.5 L 679.0 199.5 L 678.5 199.0 L 679.5 198.0 L 678.5 196.0 L 679.0 195.5 L 684.0 195.5 L 684.5 196.0 L 683.5 198.0 L 684.5 199.0 L 684.0 199.5 Z M 744.0 220.5 L 731.0 220.5 L 730.5 220.0 L 732.0 218.5 L 733.0 219.5 L 734.5 218.0 L 733.0 216.5 L 731.0 218.5 L 730.5 218.0 L 730.5 214.0 L 731.0 213.5 L 732.0 214.5 L 733.5 213.0 L 733.5 209.0 L 734.5 208.0 L 733.5 206.0 L 733.5 199.0 L 734.5 198.0 L 733.0 196.5 L 732.0 196.5 L 730.5 198.0 L 730.5 207.0 L 730.0 207.5 L 729.5 207.0 L 729.5 197.0 L 731.0 195.5 L 743.0 195.5 L 744.5 197.0 L 744.0 199.5 L 736.0 199.5 L 734.5 201.0 L 734.5 204.0 L 736.0 205.5 L 742.0 205.5 L 743.5 207.0 L 743.5 208.0 L 742.0 209.5 L 736.0 209.5 L 734.5 211.0 L 734.5 215.0 L 736.0 216.5 L 744.0 216.5 L 744.5 217.0 L 744.0 220.5 Z M 770.0 199.5 L 766.0 199.5 L 765.5 199.0 L 766.5 198.0 L 765.5 196.0 L 766.0 195.5 L 771.0 195.5 L 771.5 196.0 L 769.5 198.0 L 770.5 199.0 L 770.0 199.5 Z M 798.0 220.5 L 794.5 220.0 L 794.5 201.0 L 793.0 199.5 L 788.0 199.5 L 787.5 199.0 L 788.0 196.5 L 790.0 198.5 L 791.5 197.0 L 790.5 196.0 L 791.0 195.5 L 804.0 195.5 L 805.5 197.0 L 805.0 199.5 L 800.0 199.5 L 798.5 201.0 L 798.5 220.0 L 798.0 220.5 Z M 863.0 220.5 L 859.5 220.0 L 862.5 218.0 L 862.5 199.0 L 863.5 198.0 L 862.0 196.5 L 860.0 196.5 L 859.0 197.5 L 857.5 196.0 L 858.0 195.5 L 869.0 195.5 L 870.5 197.0 L 870.5 198.0 L 869.0 199.5 L 865.0 199.5 L 863.5 201.0 L 863.5 220.0 L 863.0 220.5 Z M 931.0 220.5 L 917.0 220.5 L 916.5 220.0 L 916.5 197.0 L 918.0 195.5 L 930.0 195.5 L 931.5 197.0 L 931.5 198.0 L 930.0 199.5 L 922.0 199.5 L 920.5 201.0 L 920.5 205.0 L 922.0 206.5 L 927.0 206.5 L 928.0 205.5 L 929.5 207.0 L 929.0 209.5 L 922.0 209.5 L 920.5 211.0 L 920.5 215.0 L 922.0 216.5 L 931.0 216.5 L 931.5 217.0 L 931.0 220.5 Z M 1127.0 220.5 L 1123.5 220.0 L 1123.5 197.0 L 1125.0 195.5 L 1132.0 195.5 L 1133.0 196.5 L 1135.5 197.0 L 1133.0 199.5 L 1129.0 199.5 L 1127.5 201.0 L 1127.5 205.0 L 1127.0 205.5 L 1126.0 204.5 L 1124.5 206.0 L 1124.5 218.0 L 1126.0 219.5 L 1127.0 219.5 L 1127.5 220.0 L 1127.0 220.5 Z M 1156.0 220.5 L 1152.5 220.0 L 1152.5 197.0 L 1154.0 195.5 L 1161.0 195.5 L 1162.0 196.5 L 1164.5 197.0 L 1162.0 199.5 L 1158.0 199.5 L 1156.5 201.0 L 1156.5 205.0 L 1158.0 206.5 L 1162.5 207.0 L 1159.5 209.0 L 1160.5 210.0 L 1160.0 210.5 L 1158.0 210.5 L 1156.5 212.0 L 1156.5 220.0 L 1156.0 220.5 Z M 1193.0 199.5 L 1189.0 199.5 L 1188.5 199.0 L 1189.5 198.0 L 1188.5 196.0 L 1193.0 195.5 L 1193.5 196.0 L 1192.5 198.0 L 1193.5 199.0 L 1193.0 199.5 Z M 1223.0 216.5 L 1221.0 214.5 L 1220.0 215.5 L 1219.5 215.0 L 1219.5 197.0 L 1221.0 195.5 L 1222.0 195.5 L 1223.5 197.0 L 1223.5 216.0 L 1223.0 216.5 Z M 1252.0 220.5 L 1239.0 220.5 L 1237.5 219.0 L 1237.5 212.0 L 1238.0 211.5 L 1238.5 212.0 L 1238.5 218.0 L 1240.0 219.5 L 1241.0 219.5 L 1242.5 218.0 L 1241.5 217.0 L 1241.5 209.0 L 1242.5 208.0 L 1241.5 206.0 L 1241.5 199.0 L 1242.5 198.0 L 1241.0 196.5 L 1240.0 196.5 L 1238.5 198.0 L 1238.0 201.5 L 1237.5 197.0 L 1239.0 195.5 L 1251.0 195.5 L 1252.5 197.0 L 1252.0 199.5 L 1244.0 199.5 L 1242.5 201.0 L 1242.5 204.0 L 1244.0 205.5 L 1250.0 205.5 L 1251.5 207.0 L 1251.0 209.5 L 1244.0 209.5 L 1242.5 211.0 L 1242.5 215.0 L 1244.0 216.5 L 1252.0 216.5 L 1252.5 217.0 L 1251.5 219.0 L 1252.5 220.0 L 1252.0 220.5 Z M 1278.0 199.5 L 1273.0 199.5 L 1272.5 199.0 L 1273.5 198.0 L 1272.5 196.0 L 1273.0 195.5 L 1278.0 195.5 L 1278.5 196.0 L 1277.5 198.0 L 1278.5 199.0 L 1278.0 199.5 Z M 1305.0 220.5 L 1301.5 220.0 L 1302.5 219.0 L 1301.5 218.0 L 1301.5 216.0 L 1302.0 215.5 L 1303.0 216.5 L 1304.5 215.0 L 1304.5 213.0 L 1303.0 211.5 L 1302.0 212.5 L 1301.5 212.0 L 1301.5 201.0 L 1300.0 199.5 L 1295.0 199.5 L 1294.5 199.0 L 1295.0 195.5 L 1311.0 195.5 L 1312.5 197.0 L 1312.5 198.0 L 1311.0 199.5 L 1307.0 199.5 L 1305.5 201.0 L 1305.5 220.0 L 1305.0 220.5 Z M 1333.0 199.5 L 1329.0 199.5 L 1326.5 197.0 L 1329.0 195.5 L 1333.0 195.5 L 1333.5 196.0 L 1332.5 198.0 L 1333.5 199.0 L 1333.0 199.5 Z M 449.5 199.0 L 450.5 198.0 L 449.0 196.5 L 447.5 198.0 L 449.0 199.5 L 449.5 199.0 Z M 645.5 199.0 L 646.5 198.0 L 645.0 196.5 L 643.5 198.0 L 645.0 199.5 L 645.5 199.0 Z M 715.0 215.5 L 714.5 215.0 L 714.5 197.0 L 715.0 196.5 L 715.5 197.0 L 715.5 215.0 L 715.0 215.5 Z M 797.5 199.0 L 798.5 198.0 L 797.0 196.5 L 796.0 196.5 L 794.5 198.0 L 796.0 199.5 L 797.5 199.0 Z M 901.0 220.5 L 897.5 220.0 L 897.5 211.0 L 896.0 209.5 L 889.0 209.5 L 887.5 211.0 L 887.5 214.0 L 887.0 214.5 L 886.5 214.0 L 886.5 209.0 L 887.5 208.0 L 886.5 206.0 L 888.0 204.5 L 889.0 205.5 L 896.0 205.5 L 897.5 204.0 L 897.5 197.0 L 898.0 196.5 L 899.0 197.5 L 901.0 196.5 L 901.5 197.0 L 901.5 220.0 L 901.0 220.5 Z M 919.5 199.0 L 920.5 198.0 L 919.0 196.5 L 917.5 198.0 L 919.0 199.5 L 919.5 199.0 Z M 1126.5 200.0 L 1128.5 198.0 L 1127.0 196.5 L 1126.0 196.5 L 1124.5 198.0 L 1124.5 199.0 L 1126.0 200.5 L 1126.5 200.0 Z M 1155.5 199.0 L 1156.5 198.0 L 1155.0 196.5 L 1153.5 198.0 L 1155.0 199.5 L 1155.5 199.0 Z M 1303.5 200.0 L 1305.5 198.0 L 1304.0 196.5 L 1302.0 196.5 L 1300.5 198.0 L 1303.0 200.5 L 1303.5 200.0 Z M 1336.0 201.5 L 1335.0 201.5 L 1333.5 200.0 L 1335.5 198.0 L 1334.5 197.0 L 1335.0 196.5 L 1336.0 196.5 L 1337.5 198.0 L 1337.5 200.0 L 1336.0 201.5 Z M 576.0 206.5 L 574.0 204.5 L 572.0 206.5 L 571.0 206.5 L 569.5 204.0 L 570.0 202.5 L 572.0 204.5 L 574.5 202.0 L 576.0 198.5 L 578.0 200.5 L 579.0 199.5 L 579.5 200.0 L 579.5 201.0 L 577.5 203.0 L 576.0 206.5 Z M 774.0 202.5 L 773.0 202.5 L 770.5 200.0 L 772.0 199.5 L 773.0 200.5 L 775.0 198.5 L 776.5 200.0 L 774.0 202.5 Z M 1324.0 205.5 L 1323.5 205.0 L 1323.5 200.0 L 1324.0 199.5 L 1326.0 201.5 L 1327.0 200.5 L 1327.5 201.0 L 1327.5 203.0 L 1327.0 203.5 L 1326.0 202.5 L 1324.0 205.5 Z M 550.0 205.5 L 548.0 203.5 L 547.0 204.5 L 546.5 204.0 L 547.0 201.5 L 548.0 202.5 L 550.0 200.5 L 550.5 201.0 L 550.0 205.5 Z M 628.0 206.5 L 626.0 204.5 L 625.0 205.5 L 624.5 205.0 L 624.5 202.0 L 625.0 201.5 L 626.0 202.5 L 628.0 200.5 L 628.5 201.0 L 628.5 206.0 L 628.0 206.5 Z M 366.0 213.5 L 365.5 213.0 L 365.5 203.0 L 366.0 202.5 L 368.0 205.5 L 369.0 204.5 L 369.5 205.0 L 369.5 212.0 L 369.0 212.5 L 368.0 211.5 L 366.0 213.5 Z M 386.0 213.5 L 384.0 211.5 L 383.0 212.5 L 382.5 212.0 L 382.5 205.0 L 383.0 204.5 L 384.0 205.5 L 386.0 202.5 L 386.5 203.0 L 386.5 213.0 L 386.0 213.5 Z M 758.0 214.5 L 757.5 214.0 L 757.5 203.0 L 758.0 202.5 L 760.0 205.5 L 761.0 204.5 L 761.5 205.0 L 761.5 211.0 L 761.0 211.5 L 760.0 210.5 L 758.5 212.0 L 758.0 214.5 Z M 1181.0 214.5 L 1180.5 214.0 L 1180.5 203.0 L 1181.0 202.5 L 1183.0 205.5 L 1184.0 204.5 L 1184.5 205.0 L 1184.5 212.0 L 1184.0 212.5 L 1183.0 211.5 L 1181.0 214.5 Z M 1197.0 214.5 L 1196.5 212.0 L 1197.5 211.0 L 1197.5 205.0 L 1198.0 204.5 L 1199.0 205.5 L 1201.0 202.5 L 1201.5 203.0 L 1201.5 213.0 L 1201.0 213.5 L 1199.0 211.5 L 1197.0 214.5 Z M 886.0 220.5 L 884.0 220.5 L 882.5 219.0 L 882.5 204.0 L 883.0 203.5 L 883.5 204.0 L 883.5 218.0 L 886.5 220.0 L 886.0 220.5 Z M 449.5 209.0 L 450.5 207.0 L 449.0 205.5 L 447.5 207.0 L 447.5 208.0 L 449.0 209.5 L 449.5 209.0 Z M 899.5 209.0 L 900.5 207.0 L 899.0 205.5 L 897.5 207.0 L 897.5 208.0 L 899.0 209.5 L 899.5 209.0 Z M 919.5 209.0 L 920.5 207.0 L 919.0 205.5 L 917.5 207.0 L 917.5 208.0 L 919.0 209.5 L 919.5 209.0 Z M 645.5 210.0 L 646.5 208.0 L 645.0 206.5 L 643.5 208.0 L 643.5 209.0 L 645.0 210.5 L 645.5 210.0 Z M 1155.5 210.0 L 1156.5 208.0 L 1155.0 206.5 L 1153.5 208.0 L 1153.5 209.0 L 1155.0 210.5 L 1155.5 210.0 Z M 1129.0 212.5 L 1127.5 211.0 L 1128.5 210.0 L 1127.5 208.0 L 1128.0 207.5 L 1133.0 207.5 L 1135.5 210.0 L 1133.0 210.5 L 1132.0 211.5 L 1130.0 211.5 L 1129.0 212.5 Z M 573.0 220.5 L 569.5 220.0 L 569.5 210.0 L 570.0 209.5 L 571.0 210.5 L 573.0 209.5 L 573.5 210.0 L 573.5 220.0 L 573.0 220.5 Z M 616.0 220.5 L 614.0 220.5 L 612.5 219.0 L 612.5 212.0 L 613.0 211.5 L 613.5 212.0 L 613.5 218.0 L 615.0 219.5 L 616.5 218.0 L 616.5 211.0 L 617.0 210.5 L 618.5 212.0 L 617.5 213.0 L 617.5 219.0 L 616.0 220.5 Z M 1338.0 216.5 L 1336.0 214.5 L 1335.0 215.5 L 1334.5 215.0 L 1334.5 213.0 L 1332.5 211.0 L 1333.0 210.5 L 1334.0 210.5 L 1336.0 212.5 L 1338.0 210.5 L 1338.5 211.0 L 1338.5 216.0 L 1338.0 216.5 Z M 712.0 220.5 L 705.0 220.5 L 703.5 219.0 L 703.5 217.0 L 705.0 215.5 L 706.0 215.5 L 706.5 216.0 L 704.5 218.0 L 706.0 219.5 L 707.5 218.0 L 706.5 217.0 L 709.0 216.5 L 711.0 213.5 L 711.5 216.0 L 709.5 218.0 L 711.0 219.5 L 712.0 219.5 L 712.5 220.0 L 712.0 220.5 Z M 774.0 219.5 L 772.5 219.0 L 774.5 217.0 L 772.5 215.0 L 773.0 214.5 L 775.0 214.5 L 776.5 216.0 L 774.0 219.5 Z M 820.0 220.5 L 816.5 220.0 L 816.5 217.0 L 818.0 215.5 L 820.0 215.5 L 821.5 217.0 L 821.5 219.0 L 820.0 220.5 Z M 380.0 220.5 L 372.0 220.5 L 371.5 220.0 L 373.5 218.0 L 372.5 217.0 L 373.0 216.5 L 375.0 217.5 L 377.0 217.5 L 379.0 216.5 L 379.5 217.0 L 378.5 218.0 L 380.5 220.0 L 380.0 220.5 Z M 686.0 220.5 L 678.0 220.5 L 675.5 219.0 L 678.0 216.5 L 680.0 216.5 L 681.0 217.5 L 683.0 217.5 L 685.0 216.5 L 687.5 219.0 L 686.0 220.5 Z M 769.0 221.5 L 767.0 221.5 L 766.0 220.5 L 763.5 220.0 L 765.5 218.0 L 764.5 217.0 L 765.0 216.5 L 767.5 217.0 L 766.5 219.0 L 768.0 220.5 L 769.5 219.0 L 768.5 217.0 L 769.0 216.5 L 771.5 217.0 L 770.5 218.0 L 772.5 220.0 L 770.0 220.5 L 769.0 221.5 Z M 819.5 219.0 L 820.5 218.0 L 819.0 216.5 L 817.5 218.0 L 819.0 219.5 L 819.5 219.0 Z M 919.5 219.0 L 920.5 218.0 L 919.0 216.5 L 917.5 218.0 L 919.0 219.5 L 919.5 219.0 Z M 1195.0 220.5 L 1187.0 220.5 L 1186.5 220.0 L 1188.5 218.0 L 1187.5 217.0 L 1188.0 216.5 L 1190.0 216.5 L 1191.0 217.5 L 1194.0 216.5 L 1194.5 217.0 L 1193.5 218.0 L 1195.5 220.0 L 1195.0 220.5 Z M 1220.0 220.5 L 1214.0 220.5 L 1213.5 220.0 L 1215.5 218.0 L 1214.5 217.0 L 1215.0 216.5 L 1218.0 216.5 L 1218.5 217.0 L 1217.5 218.0 L 1220.5 220.0 L 1220.0 220.5 Z M 1276.0 221.5 L 1274.0 220.5 L 1272.0 220.5 L 1269.5 219.0 L 1272.0 216.5 L 1274.0 216.5 L 1275.0 217.5 L 1277.0 216.5 L 1279.0 216.5 L 1281.5 219.0 L 1280.0 220.5 L 1277.0 220.5 L 1276.0 221.5 Z M 1331.0 221.5 L 1329.0 220.5 L 1326.0 220.5 L 1324.5 219.0 L 1327.0 216.5 L 1329.0 217.5 L 1331.0 217.5 L 1333.0 216.5 L 1333.5 217.0 L 1332.5 218.0 L 1334.5 220.0 L 1332.0 220.5 L 1331.0 221.5 Z" fill="#6f6f6f" fill-rule="evenodd"/>
</svg>